<svg fill="none" height="100%" width="100%" viewBox="0 0 32 32" xmlns:xlink="http://www.w3.org/1999/xlink" xmlns="http://www.w3.org/2000/svg"><defs><clipPath id="i0"><rect height="320" width="320" y="0" x="0" /></clipPath><g id="i1"><g visibility="hidden" id="i2"><animate repeatCount="indefinite" begin="0s" calcMode="discrete" dur="1.667s" values="hidden; visible; visible" keyTimes="0; 0.320064; 1" attributeName="visibility" /><g transform="translate(81,81)"><g transform="rotate(0)"><animateTransform repeatCount="indefinite" type="rotate" attributeName="transform" dur="1.667s" begin="0s" calcMode="spline" values="0; 0; 184" keyTimes="0; 0.5; 1" keySplines="0 0 1 1; 0.25 0 0.75 1" fill="freeze" /><g transform="scale(0,0)"><animateTransform repeatCount="indefinite" type="scale" attributeName="transform" dur="1.667s" begin="0s" calcMode="spline" values="0 0; 0 0; 0.4 0.4; 0.6 0.6; 0 0; 0 0" keyTimes="0; 0.5; 0.6; 0.8; 0.98; 1" keySplines="0 0 1 1; 0.25 0 0.75 1; 0.25 0 0.75 1; 0.25 0 0.75 1; 0 0 1 1" fill="freeze" /><g transform="translate(-43,-43)"><g id="i3" transform="matrix(1,0,0,1,42.663,42.663)"><path fill="#ffe5a3" d="M0,-42.413C0,-42.413,-5.713,-22.414,-5.713,-22.414C-8.021,-14.336,-14.336,-8.021,-22.415,-5.713C-22.415,-5.713,-42.413,0,-42.413,0C-42.413,0,-22.415,5.714,-22.415,5.714C-14.336,8.022,-8.021,14.336,-5.713,22.415C-5.713,22.415,0,42.413,0,42.413C0,42.413,5.714,22.415,5.714,22.415C8.021,14.336,14.336,8.022,22.415,5.714C22.415,5.714,42.413,0,42.413,0C42.413,0,22.415,-5.713,22.415,-5.713C14.336,-8.021,8.021,-14.336,5.714,-22.414C5.714,-22.414,0,-42.413,0,-42.413Z" /></g></g></g></g></g></g><g id="i4"><g transform="translate(159.761,297.283)"><animateTransform repeatCount="indefinite" type="translate" attributeName="transform" dur="1.667s" begin="0s" calcMode="spline" values="159.761 297.283; 159.761 297.283; 159.761 246; 159.761 297.283; 159.761 297.283" keyTimes="0; 0.25; 0.38; 0.51; 1" keySplines="0 0 1 1; 0.33 0 0.67 1; 0.33 0 0.67 1; 0 0 1 1" fill="freeze" /><g transform="scale(2.379,2.379)"><animateTransform repeatCount="indefinite" type="scale" attributeName="transform" dur="1.667s" begin="0s" calcMode="spline" values="2.379 2.379; 2.379 2.379; 2.379 2.099; 2.1 2.36; 2.18 2.36; 2.48 2.1; 2.379 2.379; 2.379 2.379" keyTimes="0; 0.15; 0.25; 0.38; 0.47; 0.54; 0.63; 1" keySplines="0 0 1 1; 0.33 0 0.67 1; 0.33 0 0.67 1; 0.33 0 0.67 1; 0.33 0 0.67 1; 0.33 0 0.67 1; 0 0 1 1" fill="freeze" /><g transform="translate(-42.399,-67.111)"><g id="i5"><g transform="translate(43.341,-1.199)"><g transform="rotate(0)"><animateTransform repeatCount="indefinite" type="rotate" attributeName="transform" dur="1.667s" begin="0s" calcMode="spline" values="0; 0; 10; -23; 14; 0; 0" keyTimes="0; 0.15; 0.31; 0.44; 0.58; 0.69; 1" keySplines="0 0 1 1; 0.33 0 0.67 1; 0.33 0 0.67 1; 0.33 0 0.67 1; 0.33 0 0.67 1; 0 0 1 1" fill="freeze" /><g transform="scale(0.978,0.978) translate(-7.904,-31.219)"><g id="i6" transform="matrix(1,0,0,1,22.353,18.406)"><path fill="#fe6806" d="M-19.624,9.822C-11.421,3.894,-3.824,-3.186,1.02,-12.152C4.264,-18.156,6.62,-17.271,11.32,-14.081C14.258,-12.087,22.103,-3.845,20.255,1.327C17.345,9.47,-0.965,16.87,-16.512,18.042C-18.041,18.157,-19.524,17.468,-20.441,16.24C-20.441,16.24,-20.6,16.163,-20.6,16.163C-22.103,14.151,-21.66,11.293,-19.624,9.822Z" /></g><g id="i3" transform="matrix(1,0,0,1,18.91,28.352)"><path fill="#e84715" d="M-6.38,-8.212C-9.439,-5.28,-12.755,-2.6,-16.181,-0.124C-18.217,1.348,-18.66,4.206,-17.157,6.219C-17.157,6.219,-16.999,6.294,-16.999,6.294C-16.082,7.522,-14.598,8.212,-13.069,8.097C-1.542,7.227,11.498,2.934,18.66,-2.547C7.388,-2.145,-2.824,-6.498,-6.38,-8.212Z" /></g></g></g></g></g></g></g></g></g><g id="i4"><g transform="translate(159.761,297.283)"><animateTransform repeatCount="indefinite" type="translate" attributeName="transform" dur="1.667s" begin="0s" calcMode="spline" values="159.761 297.283; 159.761 297.283; 159.761 246; 159.761 297.283; 159.761 297.283" keyTimes="0; 0.25; 0.38; 0.51; 1" keySplines="0 0 1 1; 0.33 0 0.67 1; 0.33 0 0.67 1; 0 0 1 1" fill="freeze" /><g transform="scale(2.379,2.379)"><animateTransform repeatCount="indefinite" type="scale" attributeName="transform" dur="1.667s" begin="0s" calcMode="spline" values="2.379 2.379; 2.379 2.379; 2.379 2.099; 2.1 2.36; 2.18 2.36; 2.48 2.1; 2.379 2.379; 2.379 2.379" keyTimes="0; 0.15; 0.25; 0.38; 0.47; 0.54; 0.63; 1" keySplines="0 0 1 1; 0.33 0 0.67 1; 0.33 0 0.67 1; 0.33 0 0.67 1; 0.33 0 0.67 1; 0.33 0 0.67 1; 0 0 1 1" fill="freeze" /><g transform="translate(-42.399,-67.111)"><g id="i7"><g transform="translate(43.971,0.587)"><g transform="rotate(0)"><animateTransform repeatCount="indefinite" type="rotate" attributeName="transform" dur="1.667s" begin="0s" calcMode="spline" values="0; 0; -11; 16; -14; 0; 0" keyTimes="0; 0.15; 0.32; 0.48; 0.6; 0.71; 1" keySplines="0 0 1 1; 0.33 0 0.667 1; 0.33 0 0.67 1; 0.33 0 0.67 1; 0.33 0 0.67 1; 0 0 1 1" fill="freeze" /><g transform="scale(1,1) translate(-39.29,-36.92)"><g id="i6" transform="matrix(1,0,0,1,24.686,21.652)"><path d="M24.436,15.142C24.436,15.142,14.747,2.142,5.686,-9.091C-3.562,-20.557,-7.946,-21.402,-14.574,-14.392C-21.201,-7.382,-24.436,1.835,-16.965,6.307C-9.494,10.779,12.981,21.402,15.511,19.952C18.042,18.502,24.436,15.142,24.436,15.142Z" fill="#ff8b21"><animate repeatCount="indefinite" attributeName="d" dur="1.667s" begin="0s" calcMode="spline" values="M24.436,15.142C24.436,15.142,14.747,2.142,5.686,-9.091C-3.562,-20.557,-7.946,-21.402,-14.574,-14.392C-21.201,-7.382,-24.436,1.835,-16.965,6.307C-9.494,10.779,12.981,21.402,15.511,19.952C18.042,18.502,24.436,15.142,24.436,15.142Z; M24.436,15.142C24.436,15.142,14.747,2.142,5.686,-9.091C-3.562,-20.557,-7.946,-21.402,-14.574,-14.392C-21.201,-7.382,-24.436,1.835,-16.965,6.307C-9.494,10.779,12.981,21.402,15.511,19.952C18.042,18.502,24.436,15.142,24.436,15.142Z; M24.436,15.142C24.436,15.142,12.869,1.813,6.161,-10.965C-1.606,-25.761,-8.055,-24.598,-14.406,-17.336C-22.51,-8.068,-19.974,3.136,-14.892,6.871C-7.876,12.027,12.981,21.402,15.511,19.952C18.042,18.502,24.436,15.142,24.436,15.142Z; M24.436,15.142C24.436,15.142,14.747,2.142,5.686,-9.091C-3.562,-20.557,-7.946,-21.402,-14.574,-14.392C-21.201,-7.382,-24.436,1.835,-16.965,6.307C-9.494,10.779,12.981,21.402,15.511,19.952C18.042,18.502,24.436,15.142,24.436,15.142Z; M24.436,15.142C24.436,15.142,14.747,2.142,5.686,-9.091C-3.562,-20.557,-7.946,-21.402,-14.574,-14.392C-21.201,-7.382,-24.436,1.835,-16.965,6.307C-9.494,10.779,12.981,21.402,15.511,19.952C18.042,18.502,24.436,15.142,24.436,15.142Z" keyTimes="0; 0.32; 0.44; 0.58; 1" keySplines="0 0 1 1; 0.33 0 0.67 1; 0.33 0 0.67 1; 0 0 1 1" fill="freeze" /></path></g><g id="i3" transform="matrix(1,0,0,1,29.525,31.807)"><path d="M7.283,-11.125C2.549,-3.468,-15.504,-2.67,-19.596,-2.587C-10.661,2.34,8.356,11.125,10.672,9.797C13.203,8.347,19.596,4.987,19.596,4.987C19.596,4.987,13.97,-2.562,7.283,-11.125Z" fill="#fe6806"><animate repeatCount="indefinite" attributeName="d" dur="1.667s" begin="0s" calcMode="spline" values="M7.283,-11.125C2.549,-3.468,-15.504,-2.67,-19.596,-2.587C-10.661,2.34,8.356,11.125,10.672,9.797C13.203,8.347,19.596,4.987,19.596,4.987C19.596,4.987,13.97,-2.562,7.283,-11.125Z; M7.283,-11.125C2.549,-3.468,-15.504,-2.67,-19.596,-2.587C-10.661,2.34,8.356,11.125,10.672,9.797C13.203,8.347,19.596,4.987,19.596,4.987C19.596,4.987,13.97,-2.562,7.283,-11.125Z; M7.252,-11.232C2.518,-3.575,-14.174,-2.443,-18.266,-2.36C-9.535,3.229,8.355,11.125,10.671,9.797C13.202,8.347,19.596,4.987,19.596,4.987C19.596,4.987,13.623,-1.989,7.252,-11.232Z; M7.283,-11.125C2.549,-3.468,-15.504,-2.67,-19.596,-2.587C-10.661,2.34,8.356,11.125,10.672,9.797C13.203,8.347,19.596,4.987,19.596,4.987C19.596,4.987,13.97,-2.562,7.283,-11.125Z; M7.283,-11.125C2.549,-3.468,-15.504,-2.67,-19.596,-2.587C-10.661,2.34,8.356,11.125,10.672,9.797C13.203,8.347,19.596,4.987,19.596,4.987C19.596,4.987,13.97,-2.562,7.283,-11.125Z" keyTimes="0; 0.32; 0.44; 0.58; 1" keySplines="0 0 1 1; 0.33 0 0.67 1; 0.33 0 0.67 1; 0 0 1 1" fill="freeze" /></path></g></g></g></g></g></g></g></g></g><g id="i4"><g transform="translate(159.761,297.283)"><animateTransform repeatCount="indefinite" type="translate" attributeName="transform" dur="1.667s" begin="0s" calcMode="spline" values="159.761 297.283; 159.761 297.283; 159.761 246; 159.761 297.283; 159.761 297.283" keyTimes="0; 0.25; 0.38; 0.51; 1" keySplines="0 0 1 1; 0.33 0 0.67 1; 0.33 0 0.67 1; 0 0 1 1" fill="freeze" /><g transform="scale(2.379,2.379)"><animateTransform repeatCount="indefinite" type="scale" attributeName="transform" dur="1.667s" begin="0s" calcMode="spline" values="2.379 2.379; 2.379 2.379; 2.379 2.099; 2.1 2.36; 2.18 2.36; 2.48 2.1; 2.379 2.379; 2.379 2.379" keyTimes="0; 0.15; 0.25; 0.38; 0.47; 0.54; 0.63; 1" keySplines="0 0 1 1; 0.33 0 0.67 1; 0.33 0 0.67 1; 0.33 0 0.67 1; 0.33 0 0.67 1; 0.33 0 0.67 1; 0 0 1 1" fill="freeze" /><g transform="translate(-42.399,-67.111)"><g id="i6" transform="matrix(1,0,0,1,42.399,33.681)"><path fill="#fbb122" d="M31.495,33.43C31.495,33.43,-31.495,33.43,-31.495,33.43C-37.379,33.43,-42.15,28.659,-42.15,22.775C-42.15,22.775,-42.15,-22.776,-42.15,-22.776C-42.15,-28.661,-37.379,-33.43,-31.495,-33.43C-31.495,-33.43,31.495,-33.43,31.495,-33.43C37.38,-33.43,42.15,-28.661,42.15,-22.776C42.15,-22.776,42.15,22.775,42.15,22.775C42.15,28.659,37.38,33.43,31.495,33.43Z" /></g><g id="i3" transform="matrix(1,0,0,1,42.4,33.681)"><path fill="#fe6806" d="M-10.067,33.43C-10.067,33.43,10.067,33.43,10.067,33.43C10.067,33.43,10.067,-33.43,10.067,-33.43C10.067,-33.43,-10.067,-33.43,-10.067,-33.43C-10.067,-33.43,-10.067,33.43,-10.067,33.43Z" /></g></g></g></g></g><g id="i4"><g transform="translate(159.761,297.283)"><animateTransform repeatCount="indefinite" type="translate" attributeName="transform" dur="1.667s" begin="0s" calcMode="spline" values="159.761 297.283; 159.761 297.283; 159.761 246; 159.761 297.283; 159.761 297.283" keyTimes="0; 0.25; 0.38; 0.51; 1" keySplines="0 0 1 1; 0.33 0 0.67 1; 0.33 0 0.67 1; 0 0 1 1" fill="freeze" /><g transform="scale(2.379,2.379)"><animateTransform repeatCount="indefinite" type="scale" attributeName="transform" dur="1.667s" begin="0s" calcMode="spline" values="2.379 2.379; 2.379 2.379; 2.379 2.099; 2.1 2.36; 2.18 2.36; 2.48 2.1; 2.379 2.379; 2.379 2.379" keyTimes="0; 0.15; 0.25; 0.38; 0.47; 0.54; 0.63; 1" keySplines="0 0 1 1; 0.33 0 0.67 1; 0.33 0 0.67 1; 0.33 0 0.67 1; 0.33 0 0.67 1; 0.33 0 0.67 1; 0 0 1 1" fill="freeze" /><g transform="translate(-42.399,-67.111)"><g transform="matrix(1,0,0,1,0,10.362)" opacity="0.2" id="i8"><path d="M0,3.593C0,3.593,0,17.905,0,17.905C0,17.905,84.299,24.149,84.299,24.149C84.299,24.149,84.299,3.593,84.299,3.593C84.299,2.33,84.067,1.124,83.663,0C83.663,0,0.636,0,0.636,0C0.232,1.124,0,2.33,0,3.593Z" fill="#ba0800"><animate repeatCount="indefinite" attributeName="d" dur="1.667s" begin="0s" calcMode="spline" values="M0,3.593C0,3.593,0,17.905,0,17.905C0,17.905,84.299,24.149,84.299,24.149C84.299,24.149,84.299,3.593,84.299,3.593C84.299,2.33,84.067,1.124,83.663,0C83.663,0,0.636,0,0.636,0C0.232,1.124,0,2.33,0,3.593Z; M0,3.593C0,3.593,0,17.905,0,17.905C0,17.905,84.299,24.149,84.299,24.149C84.299,24.149,84.299,3.593,84.299,3.593C84.299,2.33,84.067,1.124,83.663,0C83.663,0,0.636,0,0.636,0C0.232,1.124,0,2.33,0,3.593Z; M0,3.593C0,3.593,-0.057,16.357,-0.057,16.357C-0.057,16.357,84.26,18.433,84.26,18.433C84.26,18.433,84.299,3.593,84.299,3.593C84.299,2.33,84.067,1.124,83.663,0C83.663,0,0.636,0,0.636,0C0.232,1.124,0,2.33,0,3.593Z; M0,3.593C0,3.593,0.047,18.817,0.047,18.817C0.047,18.817,84.346,25.061,84.346,25.061C84.346,25.061,84.299,3.593,84.299,3.593C84.299,2.33,84.067,1.124,83.663,0C83.663,0,0.636,0,0.636,0C0.232,1.124,0,2.33,0,3.593Z; M0,3.593C0,3.593,-0.057,16.357,-0.057,16.357C-0.057,16.357,84.26,18.433,84.26,18.433C84.26,18.433,84.299,3.593,84.299,3.593C84.299,2.33,84.067,1.124,83.663,0C83.663,0,0.636,0,0.636,0C0.232,1.124,0,2.33,0,3.593Z; M0,3.593C0,3.593,0,17.905,0,17.905C0,17.905,84.299,24.149,84.299,24.149C84.299,24.149,84.299,3.593,84.299,3.593C84.299,2.33,84.067,1.124,83.663,0C83.663,0,0.636,0,0.636,0C0.232,1.124,0,2.33,0,3.593Z; M0,3.593C0,3.593,0,17.905,0,17.905C0,17.905,84.299,24.149,84.299,24.149C84.299,24.149,84.299,3.593,84.299,3.593C84.299,2.33,84.067,1.124,83.663,0C83.663,0,0.636,0,0.636,0C0.232,1.124,0,2.33,0,3.593Z" keyTimes="0; 0.15; 0.25; 0.38; 0.51; 0.6; 1" keySplines="0 0 1 1; 0.33 0 0.67 1; 0.33 0 0.67 1; 0.33 0 0.67 1; 0.33 0 0.67 1; 0 0 1 1" fill="freeze" /></path></g></g></g></g></g><g id="i4"><g transform="translate(159.761,297.283)"><animateTransform repeatCount="indefinite" type="translate" attributeName="transform" dur="1.667s" begin="0s" calcMode="spline" values="159.761 297.283; 159.761 297.283; 159.761 246; 159.761 297.283; 159.761 297.283" keyTimes="0; 0.25; 0.38; 0.51; 1" keySplines="0 0 1 1; 0.33 0 0.67 1; 0.33 0 0.67 1; 0 0 1 1" fill="freeze" /><g transform="scale(2.379,2.379)"><animateTransform repeatCount="indefinite" type="scale" attributeName="transform" dur="1.667s" begin="0s" calcMode="spline" values="2.379 2.379; 2.379 2.379; 2.379 2.099; 2.1 2.36; 2.18 2.36; 2.48 2.1; 2.379 2.379; 2.379 2.379" keyTimes="0; 0.15; 0.25; 0.38; 0.47; 0.54; 0.63; 1" keySplines="0 0 1 1; 0.33 0 0.67 1; 0.33 0 0.67 1; 0.33 0 0.67 1; 0.33 0 0.67 1; 0.33 0 0.67 1; 0 0 1 1" fill="freeze" /><g transform="translate(-42.399,-67.111)"><g id="i9"><g transform="translate(42.5,13.826)"><animateTransform repeatCount="indefinite" type="translate" attributeName="transform" dur="1.667s" begin="0s" calcMode="spline" values="42.5 13.826; 42.5 13.826; 42.5 18.113; 42.5 14.699; 42.5 18.113; 42.5 13.826; 42.5 13.826" keyTimes="0; 0.15; 0.25; 0.38; 0.51; 0.6; 1" keySplines="0 0 1 1; 0.33 0 0.67 1; 0.33 0 0.67 1; 0.33 0 0.67 1; 0.33 0 0.67 1; 0 0 1 1" fill="freeze" /><g transform="scale(1,1) translate(-50.5,-19.094)"><g id="i6" transform="matrix(1,0,0,1,50.25,12.857)"><path d="M43.178,12.607C43.178,12.607,-43.177,12.607,-43.177,12.607C-46.946,12.607,-50,9.552,-50,5.785C-50,5.785,-50,-5.785,-50,-5.785C-50,-9.553,-46.946,-12.607,-43.177,-12.607C-43.177,-12.607,43.178,-12.607,43.178,-12.607C46.946,-12.607,50,-9.553,50,-5.785C50,-5.785,50,5.785,50,5.785C50,9.552,46.946,12.607,43.178,12.607Z" fill="#ffca3f"><animate repeatCount="indefinite" attributeName="d" dur="1.667s" begin="0s" calcMode="spline" values="M43.178,12.607C43.178,12.607,-43.177,12.607,-43.177,12.607C-46.946,12.607,-50,9.552,-50,5.785C-50,5.785,-50,-5.785,-50,-5.785C-50,-9.553,-46.946,-12.607,-43.177,-12.607C-43.177,-12.607,43.178,-12.607,43.178,-12.607C46.946,-12.607,50,-9.553,50,-5.785C50,-5.785,50,5.785,50,5.785C50,9.552,46.946,12.607,43.178,12.607Z; M43.178,12.607C43.178,12.607,-43.177,12.607,-43.177,12.607C-46.946,12.607,-50,9.552,-50,5.785C-50,5.785,-50,-5.785,-50,-5.785C-50,-9.553,-46.946,-12.607,-43.177,-12.607C-43.177,-12.607,43.178,-12.607,43.178,-12.607C46.946,-12.607,50,-9.553,50,-5.785C50,-5.785,50,5.785,50,5.785C50,9.552,46.946,12.607,43.178,12.607Z; M43.178,12.607C43.178,12.607,-43.177,12.607,-43.177,12.607C-46.946,12.607,-50,9.552,-50,5.785C-50,5.785,-49.975,-4.237,-49.975,-4.237C-49.975,-8.005,-46.921,-11.059,-43.152,-11.059C-43.152,-11.059,43.203,-11.059,43.203,-11.059C46.971,-11.059,50.025,-8.005,50.025,-4.237C50.025,-4.237,50,5.785,50,5.785C50,9.552,46.946,12.607,43.178,12.607Z; M43.178,12.607C43.178,12.607,-43.177,12.607,-43.177,12.607C-46.946,12.607,-50,9.552,-50,5.785C-50,5.785,-50,-5.785,-50,-5.785C-50,-9.553,-46.946,-12.607,-43.177,-12.607C-43.177,-12.607,43.178,-12.607,43.178,-12.607C46.946,-12.607,50,-9.553,50,-5.785C50,-5.785,50,5.785,50,5.785C50,9.552,46.946,12.607,43.178,12.607Z; M43.178,12.607C43.178,12.607,-43.177,12.607,-43.177,12.607C-46.946,12.607,-50,9.552,-50,5.785C-50,5.785,-50,-5.785,-50,-5.785C-50,-9.553,-46.946,-12.607,-43.177,-12.607C-43.177,-12.607,43.178,-12.607,43.178,-12.607C46.946,-12.607,50,-9.553,50,-5.785C50,-5.785,50,5.785,50,5.785C50,9.552,46.946,12.607,43.178,12.607Z" keyTimes="0; 0.15; 0.25; 0.51; 1" keySplines="0 0 1 1; 0.33 0 0.67 1; 0.33 0 0.67 1; 0 0 1 1" fill="freeze" /></path></g><g id="i3" transform="matrix(1,0,0,1,50.251,12.857)"><path d="M-10.613,12.607C-10.613,12.607,10.613,12.607,10.613,12.607C10.613,12.607,10.613,-12.607,10.613,-12.607C10.613,-12.607,-10.613,-12.607,-10.613,-12.607C-10.613,-12.607,-10.613,12.607,-10.613,12.607Z" fill="#ff8b21"><animate repeatCount="indefinite" attributeName="d" dur="1.667s" begin="0s" calcMode="spline" values="M-10.613,12.607C-10.613,12.607,10.613,12.607,10.613,12.607C10.613,12.607,10.613,-12.607,10.613,-12.607C10.613,-12.607,-10.613,-12.607,-10.613,-12.607C-10.613,-12.607,-10.613,12.607,-10.613,12.607Z; M-10.613,12.607C-10.613,12.607,10.613,12.607,10.613,12.607C10.613,12.607,10.613,-12.607,10.613,-12.607C10.613,-12.607,-10.613,-12.607,-10.613,-12.607C-10.613,-12.607,-10.613,12.607,-10.613,12.607Z; M-10.613,12.607C-10.613,12.607,10.613,12.607,10.613,12.607C10.613,12.607,10.651,-11.178,10.651,-11.178C10.651,-11.178,-10.574,-11.178,-10.574,-11.178C-10.574,-11.178,-10.613,12.607,-10.613,12.607Z; M-10.613,12.607C-10.613,12.607,10.613,12.607,10.613,12.607C10.613,12.607,10.613,-12.607,10.613,-12.607C10.613,-12.607,-10.613,-12.607,-10.613,-12.607C-10.613,-12.607,-10.613,12.607,-10.613,12.607Z; M-10.613,12.607C-10.613,12.607,10.613,12.607,10.613,12.607C10.613,12.607,10.613,-12.607,10.613,-12.607C10.613,-12.607,-10.613,-12.607,-10.613,-12.607C-10.613,-12.607,-10.613,12.607,-10.613,12.607Z" keyTimes="0; 0.15; 0.25; 0.51; 1" keySplines="0 0 1 1; 0.33 0 0.67 1; 0.33 0 0.67 1; 0 0 1 1" fill="freeze" /></path></g></g></g></g></g></g></g></g><g id="i10"><g transform="translate(272,113)"><g transform="rotate(0)"><animateTransform repeatCount="indefinite" type="rotate" attributeName="transform" dur="1.667s" begin="0s" calcMode="spline" values="0; 0; 135; 135" keyTimes="0; 0.27; 0.83; 1" keySplines="0 0 1 1; 0.25 0 0.75 1; 0 0 1 1" fill="freeze" /><g transform="scale(0,0)"><animateTransform repeatCount="indefinite" type="scale" attributeName="transform" dur="1.667s" begin="0s" calcMode="spline" values="0 0; 0 0; 0.51 0.51; 0.84 0.84; 0 0; 0 0" keyTimes="0; 0.27; 0.37; 0.57; 0.75; 1" keySplines="0 0 1 1; 0.25 0 0.75 1; 0.25 0 0.75 1; 0.25 0 0.75 1; 0 0 1 1" fill="freeze" /><g transform="translate(-43,-43)"><g id="i3" transform="matrix(1,0,0,1,42.663,42.663)"><path fill="#ffe5a3" d="M0,-42.413C0,-42.413,-5.713,-22.414,-5.713,-22.414C-8.021,-14.336,-14.336,-8.021,-22.415,-5.713C-22.415,-5.713,-42.413,0,-42.413,0C-42.413,0,-22.415,5.714,-22.415,5.714C-14.336,8.022,-8.021,14.336,-5.713,22.415C-5.713,22.415,0,42.413,0,42.413C0,42.413,5.714,22.415,5.714,22.415C8.021,14.336,14.336,8.022,22.415,5.714C22.415,5.714,42.413,0,42.413,0C42.413,0,22.415,-5.713,22.415,-5.713C14.336,-8.021,8.021,-14.336,5.714,-22.414C5.714,-22.414,0,-42.413,0,-42.413Z" /></g></g></g></g></g></g><g id="i11"><g transform="translate(73,275)"><g transform="rotate(0)"><animateTransform repeatCount="indefinite" type="rotate" attributeName="transform" dur="1.667s" begin="0s" calcMode="spline" values="0; 0; 184; 184" keyTimes="0; 0.18; 0.81; 1" keySplines="0 0 1 1; 0.25 0 0.75 1; 0 0 1 1" fill="freeze" /><g transform="scale(0,0)"><animateTransform repeatCount="indefinite" type="scale" attributeName="transform" dur="1.667s" begin="0s" calcMode="spline" values="0 0; 0 0; 0.4 0.4; 0.6 0.6; 0 0; 0 0" keyTimes="0; 0.18; 0.28; 0.48; 0.66; 1" keySplines="0 0 1 1; 0.25 0 0.75 1; 0.25 0 0.75 1; 0.25 0 0.75 1; 0 0 1 1" fill="freeze" /><g transform="translate(-43,-43)"><g id="i3" transform="matrix(1,0,0,1,42.663,42.663)"><path fill="#ffe5a3" d="M0,-42.413C0,-42.413,-5.713,-22.414,-5.713,-22.414C-8.021,-14.336,-14.336,-8.021,-22.415,-5.713C-22.415,-5.713,-42.413,0,-42.413,0C-42.413,0,-22.415,5.714,-22.415,5.714C-14.336,8.022,-8.021,14.336,-5.713,22.415C-5.713,22.415,0,42.413,0,42.413C0,42.413,5.714,22.415,5.714,22.415C8.021,14.336,14.336,8.022,22.415,5.714C22.415,5.714,42.413,0,42.413,0C42.413,0,22.415,-5.713,22.415,-5.713C14.336,-8.021,8.021,-14.336,5.714,-22.414C5.714,-22.414,0,-42.413,0,-42.413Z" /></g></g></g></g></g></g><g transform="matrix(1,0,0,1,160,160)" id="i12" /></g></defs><g transform="matrix(0.1,0,0,0.1,0,0)" id="i13"><g clip-path="url(#i0)"><g visibility="hidden"><animate repeatCount="indefinite" begin="0s" calcMode="discrete" dur="1.667s" values="hidden; visible; visible" keyTimes="0; 0.320064; 1" attributeName="visibility" /><g transform="translate(81,81)"><g transform="rotate(0)"><animateTransform repeatCount="indefinite" type="rotate" attributeName="transform" dur="1.667s" begin="0s" calcMode="spline" values="0; 0; 184" keyTimes="0; 0.5; 1" keySplines="0 0 1 1; 0.25 0 0.75 1" fill="freeze" /><g transform="scale(0,0)"><animateTransform repeatCount="indefinite" type="scale" attributeName="transform" dur="1.667s" begin="0s" calcMode="spline" values="0 0; 0 0; 0.4 0.4; 0.6 0.6; 0 0; 0 0" keyTimes="0; 0.5; 0.6; 0.8; 0.98; 1" keySplines="0 0 1 1; 0.25 0 0.75 1; 0.25 0 0.75 1; 0.25 0 0.75 1; 0 0 1 1" fill="freeze" /><g transform="translate(-43,-43)"><g transform="matrix(1,0,0,1,42.663,42.663)"><path fill="#ffe5a3" d="M0,-42.413C0,-42.413,-5.713,-22.414,-5.713,-22.414C-8.021,-14.336,-14.336,-8.021,-22.415,-5.713C-22.415,-5.713,-42.413,0,-42.413,0C-42.413,0,-22.415,5.714,-22.415,5.714C-14.336,8.022,-8.021,14.336,-5.713,22.415C-5.713,22.415,0,42.413,0,42.413C0,42.413,5.714,22.415,5.714,22.415C8.021,14.336,14.336,8.022,22.415,5.714C22.415,5.714,42.413,0,42.413,0C42.413,0,22.415,-5.713,22.415,-5.713C14.336,-8.021,8.021,-14.336,5.714,-22.414C5.714,-22.414,0,-42.413,0,-42.413Z" /></g></g></g></g></g></g><g><g transform="translate(159.761,297.283)"><animateTransform repeatCount="indefinite" type="translate" attributeName="transform" dur="1.667s" begin="0s" calcMode="spline" values="159.761 297.283; 159.761 297.283; 159.761 246; 159.761 297.283; 159.761 297.283" keyTimes="0; 0.25; 0.38; 0.51; 1" keySplines="0 0 1 1; 0.33 0 0.67 1; 0.33 0 0.67 1; 0 0 1 1" fill="freeze" /><g transform="scale(2.379,2.379)"><animateTransform repeatCount="indefinite" type="scale" attributeName="transform" dur="1.667s" begin="0s" calcMode="spline" values="2.379 2.379; 2.379 2.379; 2.379 2.099; 2.1 2.36; 2.18 2.36; 2.48 2.1; 2.379 2.379; 2.379 2.379" keyTimes="0; 0.15; 0.25; 0.38; 0.47; 0.54; 0.63; 1" keySplines="0 0 1 1; 0.33 0 0.67 1; 0.33 0 0.67 1; 0.33 0 0.67 1; 0.33 0 0.67 1; 0.33 0 0.67 1; 0 0 1 1" fill="freeze" /><g transform="translate(-42.399,-67.111)"><g><g transform="translate(43.341,-1.199)"><g transform="rotate(0)"><animateTransform repeatCount="indefinite" type="rotate" attributeName="transform" dur="1.667s" begin="0s" calcMode="spline" values="0; 0; 10; -23; 14; 0; 0" keyTimes="0; 0.15; 0.31; 0.44; 0.58; 0.69; 1" keySplines="0 0 1 1; 0.33 0 0.67 1; 0.33 0 0.67 1; 0.33 0 0.67 1; 0.33 0 0.67 1; 0 0 1 1" fill="freeze" /><g transform="scale(0.978,0.978) translate(-7.904,-31.219)"><g transform="matrix(1,0,0,1,22.353,18.406)"><path fill="#fe6806" d="M-19.624,9.822C-11.421,3.894,-3.824,-3.186,1.02,-12.152C4.264,-18.156,6.62,-17.271,11.32,-14.081C14.258,-12.087,22.103,-3.845,20.255,1.327C17.345,9.47,-0.965,16.87,-16.512,18.042C-18.041,18.157,-19.524,17.468,-20.441,16.24C-20.441,16.24,-20.6,16.163,-20.6,16.163C-22.103,14.151,-21.66,11.293,-19.624,9.822Z" /></g><g transform="matrix(1,0,0,1,18.91,28.352)"><path fill="#e84715" d="M-6.38,-8.212C-9.439,-5.28,-12.755,-2.6,-16.181,-0.124C-18.217,1.348,-18.66,4.206,-17.157,6.219C-17.157,6.219,-16.999,6.294,-16.999,6.294C-16.082,7.522,-14.598,8.212,-13.069,8.097C-1.542,7.227,11.498,2.934,18.66,-2.547C7.388,-2.145,-2.824,-6.498,-6.38,-8.212Z" /></g></g></g></g></g></g></g></g></g><g><g transform="translate(159.761,297.283)"><animateTransform repeatCount="indefinite" type="translate" attributeName="transform" dur="1.667s" begin="0s" calcMode="spline" values="159.761 297.283; 159.761 297.283; 159.761 246; 159.761 297.283; 159.761 297.283" keyTimes="0; 0.25; 0.38; 0.51; 1" keySplines="0 0 1 1; 0.33 0 0.67 1; 0.33 0 0.67 1; 0 0 1 1" fill="freeze" /><g transform="scale(2.379,2.379)"><animateTransform repeatCount="indefinite" type="scale" attributeName="transform" dur="1.667s" begin="0s" calcMode="spline" values="2.379 2.379; 2.379 2.379; 2.379 2.099; 2.1 2.36; 2.18 2.36; 2.48 2.1; 2.379 2.379; 2.379 2.379" keyTimes="0; 0.15; 0.25; 0.38; 0.47; 0.54; 0.63; 1" keySplines="0 0 1 1; 0.33 0 0.67 1; 0.33 0 0.67 1; 0.33 0 0.67 1; 0.33 0 0.67 1; 0.33 0 0.67 1; 0 0 1 1" fill="freeze" /><g transform="translate(-42.399,-67.111)"><g><g transform="translate(43.971,0.587)"><g transform="rotate(0)"><animateTransform repeatCount="indefinite" type="rotate" attributeName="transform" dur="1.667s" begin="0s" calcMode="spline" values="0; 0; -11; 16; -14; 0; 0" keyTimes="0; 0.15; 0.32; 0.48; 0.6; 0.71; 1" keySplines="0 0 1 1; 0.33 0 0.667 1; 0.33 0 0.67 1; 0.33 0 0.67 1; 0.33 0 0.67 1; 0 0 1 1" fill="freeze" /><g transform="scale(1,1) translate(-39.29,-36.92)"><g transform="matrix(1,0,0,1,24.686,21.652)"><path d="M24.436,15.142C24.436,15.142,14.747,2.142,5.686,-9.091C-3.562,-20.557,-7.946,-21.402,-14.574,-14.392C-21.201,-7.382,-24.436,1.835,-16.965,6.307C-9.494,10.779,12.981,21.402,15.511,19.952C18.042,18.502,24.436,15.142,24.436,15.142Z" fill="#ff8b21"><animate repeatCount="indefinite" attributeName="d" dur="1.667s" begin="0s" calcMode="spline" values="M24.436,15.142C24.436,15.142,14.747,2.142,5.686,-9.091C-3.562,-20.557,-7.946,-21.402,-14.574,-14.392C-21.201,-7.382,-24.436,1.835,-16.965,6.307C-9.494,10.779,12.981,21.402,15.511,19.952C18.042,18.502,24.436,15.142,24.436,15.142Z; M24.436,15.142C24.436,15.142,14.747,2.142,5.686,-9.091C-3.562,-20.557,-7.946,-21.402,-14.574,-14.392C-21.201,-7.382,-24.436,1.835,-16.965,6.307C-9.494,10.779,12.981,21.402,15.511,19.952C18.042,18.502,24.436,15.142,24.436,15.142Z; M24.436,15.142C24.436,15.142,12.869,1.813,6.161,-10.965C-1.606,-25.761,-8.055,-24.598,-14.406,-17.336C-22.51,-8.068,-19.974,3.136,-14.892,6.871C-7.876,12.027,12.981,21.402,15.511,19.952C18.042,18.502,24.436,15.142,24.436,15.142Z; M24.436,15.142C24.436,15.142,14.747,2.142,5.686,-9.091C-3.562,-20.557,-7.946,-21.402,-14.574,-14.392C-21.201,-7.382,-24.436,1.835,-16.965,6.307C-9.494,10.779,12.981,21.402,15.511,19.952C18.042,18.502,24.436,15.142,24.436,15.142Z; M24.436,15.142C24.436,15.142,14.747,2.142,5.686,-9.091C-3.562,-20.557,-7.946,-21.402,-14.574,-14.392C-21.201,-7.382,-24.436,1.835,-16.965,6.307C-9.494,10.779,12.981,21.402,15.511,19.952C18.042,18.502,24.436,15.142,24.436,15.142Z" keyTimes="0; 0.32; 0.44; 0.58; 1" keySplines="0 0 1 1; 0.33 0 0.67 1; 0.33 0 0.67 1; 0 0 1 1" fill="freeze" /></path></g><g transform="matrix(1,0,0,1,29.525,31.807)"><path d="M7.283,-11.125C2.549,-3.468,-15.504,-2.67,-19.596,-2.587C-10.661,2.34,8.356,11.125,10.672,9.797C13.203,8.347,19.596,4.987,19.596,4.987C19.596,4.987,13.97,-2.562,7.283,-11.125Z" fill="#fe6806"><animate repeatCount="indefinite" attributeName="d" dur="1.667s" begin="0s" calcMode="spline" values="M7.283,-11.125C2.549,-3.468,-15.504,-2.67,-19.596,-2.587C-10.661,2.34,8.356,11.125,10.672,9.797C13.203,8.347,19.596,4.987,19.596,4.987C19.596,4.987,13.97,-2.562,7.283,-11.125Z; M7.283,-11.125C2.549,-3.468,-15.504,-2.67,-19.596,-2.587C-10.661,2.34,8.356,11.125,10.672,9.797C13.203,8.347,19.596,4.987,19.596,4.987C19.596,4.987,13.97,-2.562,7.283,-11.125Z; M7.252,-11.232C2.518,-3.575,-14.174,-2.443,-18.266,-2.36C-9.535,3.229,8.355,11.125,10.671,9.797C13.202,8.347,19.596,4.987,19.596,4.987C19.596,4.987,13.623,-1.989,7.252,-11.232Z; M7.283,-11.125C2.549,-3.468,-15.504,-2.67,-19.596,-2.587C-10.661,2.34,8.356,11.125,10.672,9.797C13.203,8.347,19.596,4.987,19.596,4.987C19.596,4.987,13.97,-2.562,7.283,-11.125Z; M7.283,-11.125C2.549,-3.468,-15.504,-2.67,-19.596,-2.587C-10.661,2.34,8.356,11.125,10.672,9.797C13.203,8.347,19.596,4.987,19.596,4.987C19.596,4.987,13.97,-2.562,7.283,-11.125Z" keyTimes="0; 0.32; 0.44; 0.58; 1" keySplines="0 0 1 1; 0.33 0 0.67 1; 0.33 0 0.67 1; 0 0 1 1" fill="freeze" /></path></g></g></g></g></g></g></g></g></g><g><g transform="translate(159.761,297.283)"><animateTransform repeatCount="indefinite" type="translate" attributeName="transform" dur="1.667s" begin="0s" calcMode="spline" values="159.761 297.283; 159.761 297.283; 159.761 246; 159.761 297.283; 159.761 297.283" keyTimes="0; 0.25; 0.38; 0.51; 1" keySplines="0 0 1 1; 0.33 0 0.67 1; 0.33 0 0.67 1; 0 0 1 1" fill="freeze" /><g transform="scale(2.379,2.379)"><animateTransform repeatCount="indefinite" type="scale" attributeName="transform" dur="1.667s" begin="0s" calcMode="spline" values="2.379 2.379; 2.379 2.379; 2.379 2.099; 2.1 2.36; 2.18 2.36; 2.48 2.1; 2.379 2.379; 2.379 2.379" keyTimes="0; 0.15; 0.25; 0.38; 0.47; 0.54; 0.63; 1" keySplines="0 0 1 1; 0.33 0 0.67 1; 0.33 0 0.67 1; 0.33 0 0.67 1; 0.33 0 0.67 1; 0.33 0 0.67 1; 0 0 1 1" fill="freeze" /><g transform="translate(-42.399,-67.111)"><g transform="matrix(1,0,0,1,42.399,33.681)"><path fill="#fbb122" d="M31.495,33.43C31.495,33.43,-31.495,33.43,-31.495,33.43C-37.379,33.43,-42.15,28.659,-42.15,22.775C-42.15,22.775,-42.15,-22.776,-42.15,-22.776C-42.15,-28.661,-37.379,-33.43,-31.495,-33.43C-31.495,-33.43,31.495,-33.43,31.495,-33.43C37.38,-33.43,42.15,-28.661,42.15,-22.776C42.15,-22.776,42.15,22.775,42.15,22.775C42.15,28.659,37.38,33.43,31.495,33.43Z" /></g><g transform="matrix(1,0,0,1,42.4,33.681)"><path fill="#fe6806" d="M-10.067,33.43C-10.067,33.43,10.067,33.43,10.067,33.43C10.067,33.43,10.067,-33.43,10.067,-33.43C10.067,-33.43,-10.067,-33.43,-10.067,-33.43C-10.067,-33.43,-10.067,33.43,-10.067,33.43Z" /></g></g></g></g></g><g><g transform="translate(159.761,297.283)"><animateTransform repeatCount="indefinite" type="translate" attributeName="transform" dur="1.667s" begin="0s" calcMode="spline" values="159.761 297.283; 159.761 297.283; 159.761 246; 159.761 297.283; 159.761 297.283" keyTimes="0; 0.25; 0.38; 0.51; 1" keySplines="0 0 1 1; 0.33 0 0.67 1; 0.33 0 0.67 1; 0 0 1 1" fill="freeze" /><g transform="scale(2.379,2.379)"><animateTransform repeatCount="indefinite" type="scale" attributeName="transform" dur="1.667s" begin="0s" calcMode="spline" values="2.379 2.379; 2.379 2.379; 2.379 2.099; 2.1 2.36; 2.18 2.36; 2.48 2.1; 2.379 2.379; 2.379 2.379" keyTimes="0; 0.15; 0.25; 0.38; 0.47; 0.54; 0.63; 1" keySplines="0 0 1 1; 0.33 0 0.67 1; 0.33 0 0.67 1; 0.33 0 0.67 1; 0.33 0 0.67 1; 0.33 0 0.67 1; 0 0 1 1" fill="freeze" /><g transform="translate(-42.399,-67.111)"><g transform="matrix(1,0,0,1,0,10.362)" opacity="0.2"><path d="M0,3.593C0,3.593,0,17.905,0,17.905C0,17.905,84.299,24.149,84.299,24.149C84.299,24.149,84.299,3.593,84.299,3.593C84.299,2.33,84.067,1.124,83.663,0C83.663,0,0.636,0,0.636,0C0.232,1.124,0,2.33,0,3.593Z" fill="#ba0800"><animate repeatCount="indefinite" attributeName="d" dur="1.667s" begin="0s" calcMode="spline" values="M0,3.593C0,3.593,0,17.905,0,17.905C0,17.905,84.299,24.149,84.299,24.149C84.299,24.149,84.299,3.593,84.299,3.593C84.299,2.33,84.067,1.124,83.663,0C83.663,0,0.636,0,0.636,0C0.232,1.124,0,2.33,0,3.593Z; M0,3.593C0,3.593,0,17.905,0,17.905C0,17.905,84.299,24.149,84.299,24.149C84.299,24.149,84.299,3.593,84.299,3.593C84.299,2.33,84.067,1.124,83.663,0C83.663,0,0.636,0,0.636,0C0.232,1.124,0,2.33,0,3.593Z; M0,3.593C0,3.593,-0.057,16.357,-0.057,16.357C-0.057,16.357,84.26,18.433,84.26,18.433C84.26,18.433,84.299,3.593,84.299,3.593C84.299,2.33,84.067,1.124,83.663,0C83.663,0,0.636,0,0.636,0C0.232,1.124,0,2.33,0,3.593Z; M0,3.593C0,3.593,0.047,18.817,0.047,18.817C0.047,18.817,84.346,25.061,84.346,25.061C84.346,25.061,84.299,3.593,84.299,3.593C84.299,2.33,84.067,1.124,83.663,0C83.663,0,0.636,0,0.636,0C0.232,1.124,0,2.33,0,3.593Z; M0,3.593C0,3.593,-0.057,16.357,-0.057,16.357C-0.057,16.357,84.26,18.433,84.26,18.433C84.26,18.433,84.299,3.593,84.299,3.593C84.299,2.33,84.067,1.124,83.663,0C83.663,0,0.636,0,0.636,0C0.232,1.124,0,2.33,0,3.593Z; M0,3.593C0,3.593,0,17.905,0,17.905C0,17.905,84.299,24.149,84.299,24.149C84.299,24.149,84.299,3.593,84.299,3.593C84.299,2.33,84.067,1.124,83.663,0C83.663,0,0.636,0,0.636,0C0.232,1.124,0,2.33,0,3.593Z; M0,3.593C0,3.593,0,17.905,0,17.905C0,17.905,84.299,24.149,84.299,24.149C84.299,24.149,84.299,3.593,84.299,3.593C84.299,2.33,84.067,1.124,83.663,0C83.663,0,0.636,0,0.636,0C0.232,1.124,0,2.33,0,3.593Z" keyTimes="0; 0.15; 0.25; 0.38; 0.51; 0.6; 1" keySplines="0 0 1 1; 0.33 0 0.67 1; 0.33 0 0.67 1; 0.33 0 0.67 1; 0.33 0 0.67 1; 0 0 1 1" fill="freeze" /></path></g></g></g></g></g><g><g transform="translate(159.761,297.283)"><animateTransform repeatCount="indefinite" type="translate" attributeName="transform" dur="1.667s" begin="0s" calcMode="spline" values="159.761 297.283; 159.761 297.283; 159.761 246; 159.761 297.283; 159.761 297.283" keyTimes="0; 0.25; 0.38; 0.51; 1" keySplines="0 0 1 1; 0.33 0 0.67 1; 0.33 0 0.67 1; 0 0 1 1" fill="freeze" /><g transform="scale(2.379,2.379)"><animateTransform repeatCount="indefinite" type="scale" attributeName="transform" dur="1.667s" begin="0s" calcMode="spline" values="2.379 2.379; 2.379 2.379; 2.379 2.099; 2.1 2.36; 2.18 2.36; 2.48 2.1; 2.379 2.379; 2.379 2.379" keyTimes="0; 0.15; 0.25; 0.38; 0.47; 0.54; 0.63; 1" keySplines="0 0 1 1; 0.33 0 0.67 1; 0.33 0 0.67 1; 0.33 0 0.67 1; 0.33 0 0.67 1; 0.33 0 0.67 1; 0 0 1 1" fill="freeze" /><g transform="translate(-42.399,-67.111)"><g><g transform="translate(42.5,13.826)"><animateTransform repeatCount="indefinite" type="translate" attributeName="transform" dur="1.667s" begin="0s" calcMode="spline" values="42.5 13.826; 42.5 13.826; 42.5 18.113; 42.5 14.699; 42.5 18.113; 42.5 13.826; 42.5 13.826" keyTimes="0; 0.15; 0.25; 0.38; 0.51; 0.6; 1" keySplines="0 0 1 1; 0.33 0 0.67 1; 0.33 0 0.67 1; 0.33 0 0.67 1; 0.33 0 0.67 1; 0 0 1 1" fill="freeze" /><g transform="scale(1,1) translate(-50.5,-19.094)"><g transform="matrix(1,0,0,1,50.25,12.857)"><path d="M43.178,12.607C43.178,12.607,-43.177,12.607,-43.177,12.607C-46.946,12.607,-50,9.552,-50,5.785C-50,5.785,-50,-5.785,-50,-5.785C-50,-9.553,-46.946,-12.607,-43.177,-12.607C-43.177,-12.607,43.178,-12.607,43.178,-12.607C46.946,-12.607,50,-9.553,50,-5.785C50,-5.785,50,5.785,50,5.785C50,9.552,46.946,12.607,43.178,12.607Z" fill="#ffca3f"><animate repeatCount="indefinite" attributeName="d" dur="1.667s" begin="0s" calcMode="spline" values="M43.178,12.607C43.178,12.607,-43.177,12.607,-43.177,12.607C-46.946,12.607,-50,9.552,-50,5.785C-50,5.785,-50,-5.785,-50,-5.785C-50,-9.553,-46.946,-12.607,-43.177,-12.607C-43.177,-12.607,43.178,-12.607,43.178,-12.607C46.946,-12.607,50,-9.553,50,-5.785C50,-5.785,50,5.785,50,5.785C50,9.552,46.946,12.607,43.178,12.607Z; M43.178,12.607C43.178,12.607,-43.177,12.607,-43.177,12.607C-46.946,12.607,-50,9.552,-50,5.785C-50,5.785,-50,-5.785,-50,-5.785C-50,-9.553,-46.946,-12.607,-43.177,-12.607C-43.177,-12.607,43.178,-12.607,43.178,-12.607C46.946,-12.607,50,-9.553,50,-5.785C50,-5.785,50,5.785,50,5.785C50,9.552,46.946,12.607,43.178,12.607Z; M43.178,12.607C43.178,12.607,-43.177,12.607,-43.177,12.607C-46.946,12.607,-50,9.552,-50,5.785C-50,5.785,-49.975,-4.237,-49.975,-4.237C-49.975,-8.005,-46.921,-11.059,-43.152,-11.059C-43.152,-11.059,43.203,-11.059,43.203,-11.059C46.971,-11.059,50.025,-8.005,50.025,-4.237C50.025,-4.237,50,5.785,50,5.785C50,9.552,46.946,12.607,43.178,12.607Z; M43.178,12.607C43.178,12.607,-43.177,12.607,-43.177,12.607C-46.946,12.607,-50,9.552,-50,5.785C-50,5.785,-50,-5.785,-50,-5.785C-50,-9.553,-46.946,-12.607,-43.177,-12.607C-43.177,-12.607,43.178,-12.607,43.178,-12.607C46.946,-12.607,50,-9.553,50,-5.785C50,-5.785,50,5.785,50,5.785C50,9.552,46.946,12.607,43.178,12.607Z; M43.178,12.607C43.178,12.607,-43.177,12.607,-43.177,12.607C-46.946,12.607,-50,9.552,-50,5.785C-50,5.785,-50,-5.785,-50,-5.785C-50,-9.553,-46.946,-12.607,-43.177,-12.607C-43.177,-12.607,43.178,-12.607,43.178,-12.607C46.946,-12.607,50,-9.553,50,-5.785C50,-5.785,50,5.785,50,5.785C50,9.552,46.946,12.607,43.178,12.607Z" keyTimes="0; 0.15; 0.25; 0.51; 1" keySplines="0 0 1 1; 0.33 0 0.67 1; 0.33 0 0.67 1; 0 0 1 1" fill="freeze" /></path></g><g transform="matrix(1,0,0,1,50.251,12.857)"><path d="M-10.613,12.607C-10.613,12.607,10.613,12.607,10.613,12.607C10.613,12.607,10.613,-12.607,10.613,-12.607C10.613,-12.607,-10.613,-12.607,-10.613,-12.607C-10.613,-12.607,-10.613,12.607,-10.613,12.607Z" fill="#ff8b21"><animate repeatCount="indefinite" attributeName="d" dur="1.667s" begin="0s" calcMode="spline" values="M-10.613,12.607C-10.613,12.607,10.613,12.607,10.613,12.607C10.613,12.607,10.613,-12.607,10.613,-12.607C10.613,-12.607,-10.613,-12.607,-10.613,-12.607C-10.613,-12.607,-10.613,12.607,-10.613,12.607Z; M-10.613,12.607C-10.613,12.607,10.613,12.607,10.613,12.607C10.613,12.607,10.613,-12.607,10.613,-12.607C10.613,-12.607,-10.613,-12.607,-10.613,-12.607C-10.613,-12.607,-10.613,12.607,-10.613,12.607Z; M-10.613,12.607C-10.613,12.607,10.613,12.607,10.613,12.607C10.613,12.607,10.651,-11.178,10.651,-11.178C10.651,-11.178,-10.574,-11.178,-10.574,-11.178C-10.574,-11.178,-10.613,12.607,-10.613,12.607Z; M-10.613,12.607C-10.613,12.607,10.613,12.607,10.613,12.607C10.613,12.607,10.613,-12.607,10.613,-12.607C10.613,-12.607,-10.613,-12.607,-10.613,-12.607C-10.613,-12.607,-10.613,12.607,-10.613,12.607Z; M-10.613,12.607C-10.613,12.607,10.613,12.607,10.613,12.607C10.613,12.607,10.613,-12.607,10.613,-12.607C10.613,-12.607,-10.613,-12.607,-10.613,-12.607C-10.613,-12.607,-10.613,12.607,-10.613,12.607Z" keyTimes="0; 0.15; 0.25; 0.51; 1" keySplines="0 0 1 1; 0.33 0 0.67 1; 0.33 0 0.67 1; 0 0 1 1" fill="freeze" /></path></g></g></g></g></g></g></g></g><g><g transform="translate(272,113)"><g transform="rotate(0)"><animateTransform repeatCount="indefinite" type="rotate" attributeName="transform" dur="1.667s" begin="0s" calcMode="spline" values="0; 0; 135; 135" keyTimes="0; 0.27; 0.83; 1" keySplines="0 0 1 1; 0.25 0 0.75 1; 0 0 1 1" fill="freeze" /><g transform="scale(0,0)"><animateTransform repeatCount="indefinite" type="scale" attributeName="transform" dur="1.667s" begin="0s" calcMode="spline" values="0 0; 0 0; 0.51 0.51; 0.84 0.84; 0 0; 0 0" keyTimes="0; 0.27; 0.37; 0.57; 0.75; 1" keySplines="0 0 1 1; 0.25 0 0.75 1; 0.25 0 0.75 1; 0.25 0 0.75 1; 0 0 1 1" fill="freeze" /><g transform="translate(-43,-43)"><g transform="matrix(1,0,0,1,42.663,42.663)"><path fill="#ffe5a3" d="M0,-42.413C0,-42.413,-5.713,-22.414,-5.713,-22.414C-8.021,-14.336,-14.336,-8.021,-22.415,-5.713C-22.415,-5.713,-42.413,0,-42.413,0C-42.413,0,-22.415,5.714,-22.415,5.714C-14.336,8.022,-8.021,14.336,-5.713,22.415C-5.713,22.415,0,42.413,0,42.413C0,42.413,5.714,22.415,5.714,22.415C8.021,14.336,14.336,8.022,22.415,5.714C22.415,5.714,42.413,0,42.413,0C42.413,0,22.415,-5.713,22.415,-5.713C14.336,-8.021,8.021,-14.336,5.714,-22.414C5.714,-22.414,0,-42.413,0,-42.413Z" /></g></g></g></g></g></g><g><g transform="translate(73,275)"><g transform="rotate(0)"><animateTransform repeatCount="indefinite" type="rotate" attributeName="transform" dur="1.667s" begin="0s" calcMode="spline" values="0; 0; 184; 184" keyTimes="0; 0.18; 0.81; 1" keySplines="0 0 1 1; 0.25 0 0.75 1; 0 0 1 1" fill="freeze" /><g transform="scale(0,0)"><animateTransform repeatCount="indefinite" type="scale" attributeName="transform" dur="1.667s" begin="0s" calcMode="spline" values="0 0; 0 0; 0.4 0.4; 0.6 0.6; 0 0; 0 0" keyTimes="0; 0.18; 0.28; 0.48; 0.66; 1" keySplines="0 0 1 1; 0.25 0 0.75 1; 0.25 0 0.75 1; 0.25 0 0.75 1; 0 0 1 1" fill="freeze" /><g transform="translate(-43,-43)"><g transform="matrix(1,0,0,1,42.663,42.663)"><path fill="#ffe5a3" d="M0,-42.413C0,-42.413,-5.713,-22.414,-5.713,-22.414C-8.021,-14.336,-14.336,-8.021,-22.415,-5.713C-22.415,-5.713,-42.413,0,-42.413,0C-42.413,0,-22.415,5.714,-22.415,5.714C-14.336,8.022,-8.021,14.336,-5.713,22.415C-5.713,22.415,0,42.413,0,42.413C0,42.413,5.714,22.415,5.714,22.415C8.021,14.336,14.336,8.022,22.415,5.714C22.415,5.714,42.413,0,42.413,0C42.413,0,22.415,-5.713,22.415,-5.713C14.336,-8.021,8.021,-14.336,5.714,-22.414C5.714,-22.414,0,-42.413,0,-42.413Z" /></g></g></g></g></g></g><g transform="matrix(1,0,0,1,160,160)" /></g></g></svg>