<svg fill="none" height="100%" width="100%" viewBox="0 0 1280 720" xmlns:xlink="http://www.w3.org/1999/xlink" xmlns="http://www.w3.org/2000/svg"><g id="i0"><g transform="translate(620.721,501.9)"><g transform="rotate(4.571)"><animateTransform repeatCount="indefinite" type="rotate" attributeName="transform" dur="3s" begin="0s" calcMode="spline" values="0; 0; 19; 0; -13; 0; 16; -13; 14; -14; 13; -13; 14; -13; 13; -15; 14; -16; 9; 0" keyTimes="0; 0.173333; 0.333333; 0.506666; 0.666666; 0.773333; 0.866666; 0.946667; 1; 1; 1; 1; 1; 1; 1; 1; 1; 1; 1; 1" keySplines="0 0 1 1; 0 0 1 1; 0 0 1 1; 0 0 1 1; 0 0 1 1; 0 0 1 1; 0 0 1 1; 0 0 1 1; 0 0 1 1; 0 0 1 1; 0 0 1 1; 0 0 1 1; 0 0 1 1; 0 0 1 1; 0 0 1 1; 0 0 1 1; 0 0 1 1; 0 0 1 1; 0 0 1 1" fill="freeze" /><g transform="scale(1,1) translate(-109.34,-56.702)"><g transform="matrix(1,0,0,1,-0.001,-17.136)" visibility="visible" id="i1"><animate repeatCount="indefinite" begin="0s" calcMode="discrete" dur="3s" values="visible; hidden; hidden" keyTimes="0; 0.947; 1" attributeName="visibility" /><g id="i2" transform="matrix(1,0,0,1,109.34,9.052)"><path fill="#ffc93e" d="M109.09,8.802C109.09,8.802,-109.09,8.802,-109.09,8.802C-109.09,8.802,-109.09,-8.802,-109.09,-8.802C-109.09,-8.802,109.09,-8.802,109.09,-8.802C109.09,-8.802,109.09,8.802,109.09,8.802Z" /></g></g></g></g></g></g><g visibility="visible" id="i0"><animate repeatCount="indefinite" begin="0s" calcMode="discrete" dur="3s" values="visible; hidden; hidden" keyTimes="0; 0.947; 1" attributeName="visibility" /><g transform="translate(620.721,501.9)"><g transform="rotate(4.571)"><animateTransform repeatCount="indefinite" type="rotate" attributeName="transform" dur="3s" begin="0s" calcMode="spline" values="0; 0; 19; 0; -13; 0; 16; -13; 14; -14; 13; -13; 14; -13; 13; -15; 14; -16; 9; 0" keyTimes="0; 0.173333; 0.333333; 0.506666; 0.666666; 0.773333; 0.866666; 0.946667; 1; 1; 1; 1; 1; 1; 1; 1; 1; 1; 1; 1" keySplines="0 0 1 1; 0 0 1 1; 0 0 1 1; 0 0 1 1; 0 0 1 1; 0 0 1 1; 0 0 1 1; 0 0 1 1; 0 0 1 1; 0 0 1 1; 0 0 1 1; 0 0 1 1; 0 0 1 1; 0 0 1 1; 0 0 1 1; 0 0 1 1; 0 0 1 1; 0 0 1 1; 0 0 1 1" fill="freeze" /><g transform="scale(1,1) translate(-109.34,-56.702)"><g id="i3" transform="matrix(1,0,0,1,109.339,56.701)"><path fill="#4a4a4a" d="M88.789,56.452C88.789,56.452,-88.788,56.452,-88.788,56.452C-100,56.452,-109.089,47.363,-109.089,36.151C-109.089,36.151,-109.089,-56.452,-109.089,-56.452C-109.089,-56.452,109.089,-56.452,109.089,-56.452C109.089,-56.452,109.089,36.151,109.089,36.151C109.089,47.363,100.001,56.452,88.789,56.452Z" /></g><g id="i2" transform="matrix(1,0,0,1,109.34,56.702)"><path fill="#ffc700" d="M20.077,56.452C20.077,56.452,-20.077,56.452,-20.077,56.452C-20.077,56.452,-20.077,-56.452,-20.077,-56.452C-20.077,-56.452,20.077,-56.452,20.077,-56.452C20.077,-56.452,20.077,56.452,20.077,56.452Z" /></g></g></g></g></g><g id="i0"><g transform="translate(620.721,501.9)"><g transform="rotate(4.571)"><animateTransform repeatCount="indefinite" type="rotate" attributeName="transform" dur="3s" begin="0s" calcMode="spline" values="0; 0; 19; 0; -13; 0; 16; -13; 14; -14; 13; -13; 14; -13; 13; -15; 14; -16; 9; 0" keyTimes="0; 0.173333; 0.333333; 0.506666; 0.666666; 0.773333; 0.866666; 0.946667; 1; 1; 1; 1; 1; 1; 1; 1; 1; 1; 1; 1" keySplines="0 0 1 1; 0 0 1 1; 0 0 1 1; 0 0 1 1; 0 0 1 1; 0 0 1 1; 0 0 1 1; 0 0 1 1; 0 0 1 1; 0 0 1 1; 0 0 1 1; 0 0 1 1; 0 0 1 1; 0 0 1 1; 0 0 1 1; 0 0 1 1; 0 0 1 1; 0 0 1 1; 0 0 1 1" fill="freeze" /><g transform="scale(1,1) translate(-109.34,-56.702)"><g visibility="visible" id="i4"><animate repeatCount="indefinite" begin="0s" calcMode="discrete" dur="3s" values="visible; hidden; hidden" keyTimes="0; 0.947; 1" attributeName="visibility" /><animate repeatCount="indefinite" attributeName="opacity" dur="3s" begin="0s" fill="freeze" values="1; 1; 0" keyTimes="0; 1; 1" keySplines="0 0 1 1; 0 0 1 1" calcMode="spline" /><g transform="translate(109.34,9.102) scale(1,1) translate(-109.34,-9.052)"><g id="i3" transform="matrix(1,0,0,1,109.34,9.052)"><path fill="#ffc700" d="M109.09,8.802C109.09,8.802,-109.09,8.802,-109.09,8.802C-109.09,8.802,-109.09,-8.802,-109.09,-8.802C-109.09,-8.802,109.09,-8.802,109.09,-8.802C109.09,-8.802,109.09,8.802,109.09,8.802Z" /></g><g id="i2" transform="matrix(1,0,0,1,109.34,9.052)"><path fill="#ffc700" d="M20.077,8.802C20.077,8.802,-20.077,8.802,-20.077,8.802C-20.077,8.802,-20.077,-8.802,-20.077,-8.802C-20.077,-8.802,20.077,-8.802,20.077,-8.802C20.077,-8.802,20.077,8.802,20.077,8.802Z" /></g></g></g></g></g></g></g><g id="i0"><g transform="translate(620.721,501.9)"><g transform="rotate(4.571)"><animateTransform repeatCount="indefinite" type="rotate" attributeName="transform" dur="3s" begin="0s" calcMode="spline" values="0; 0; 19; 0; -13; 0; 16; -13; 14; -14; 13; -13; 14; -13; 13; -15; 14; -16; 9; 0" keyTimes="0; 0.173333; 0.333333; 0.506666; 0.666666; 0.773333; 0.866666; 0.946667; 1; 1; 1; 1; 1; 1; 1; 1; 1; 1; 1; 1" keySplines="0 0 1 1; 0 0 1 1; 0 0 1 1; 0 0 1 1; 0 0 1 1; 0 0 1 1; 0 0 1 1; 0 0 1 1; 0 0 1 1; 0 0 1 1; 0 0 1 1; 0 0 1 1; 0 0 1 1; 0 0 1 1; 0 0 1 1; 0 0 1 1; 0 0 1 1; 0 0 1 1; 0 0 1 1" fill="freeze" /><g transform="scale(1,1) translate(-109.34,-56.702)"><g visibility="visible" id="i5"><animate repeatCount="indefinite" begin="0s" calcMode="discrete" dur="3s" values="visible; hidden; hidden" keyTimes="0; 0.947; 1" attributeName="visibility" /><g transform="translate(109.46,-55.998)"><animateTransform repeatCount="indefinite" type="translate" attributeName="transform" dur="3s" begin="0s" calcMode="spline" values="109.46 -55.998; 109.46 -55.998; 58.843 -115.255; 59.136 -155.999; 52.35 -203.06" keyTimes="0; 1; 1; 1; 1" keySplines="0 0 1 1; 0 0 1 1; 0 0 1 1; 0 0 1 1" fill="freeze" /><g transform="rotate(0)"><animateTransform repeatCount="indefinite" type="rotate" attributeName="transform" dur="3s" begin="0s" calcMode="spline" values="0; 0; -20; -38" keyTimes="0; 1; 1; 1" keySplines="0 0 1 1; 0 0 1 1; 0 0 1 1" fill="freeze" /><g transform="scale(1,1) translate(-119.038,-57.367)"><g id="i6" transform="matrix(1,0,0,1,119.134,37.048)"><path fill="#fd6806" fill-rule="evenodd" d="M69.391,-17.542C67.372,-24.921,62.166,-30.264,54.727,-32.585C41.674,-36.66,27.193,-28.904,19.262,-19.973C13.487,-13.471,9.275,-6.095,5.579,1.41C5.423,1.399,5.266,1.385,5.108,1.385C5.108,1.385,-5.624,1.367,-5.624,1.367C-9.292,-6.141,-13.476,-13.522,-19.224,-20.036C-27.125,-28.994,-41.581,-36.798,-54.648,-32.767C-62.093,-30.47,-67.318,-25.145,-69.361,-17.773C-71.856,-8.767,-69.087,2.242,-62.471,9.621C-55.301,17.618,-45.246,21.16,-36.374,24.285C-35.225,24.69,-34.085,25.09,-32.964,25.497C-24.381,28.613,-15.719,31.118,-7.221,32.939C-7.221,32.939,-4.715,36.798,-4.715,36.798C-4.715,36.798,-0.072,34.587,-0.072,34.587C-0.072,34.587,4.182,35.704,4.182,35.704C4.182,35.704,7.082,32.962,7.082,32.962C15.587,31.169,24.256,28.695,32.85,25.608C33.973,25.205,35.113,24.807,36.264,24.406C45.146,21.311,55.214,17.802,62.41,9.829C69.051,2.472,71.856,-8.529,69.391,-17.542ZM-28.406,12.944C-29.567,12.523,-30.747,12.108,-31.936,11.688C-39.657,8.969,-47.64,6.157,-52.527,0.706C-56.11,-3.29,-57.777,-9.562,-56.49,-14.207C-55.671,-17.161,-53.781,-19.057,-50.711,-20.004C-48.664,-20.636,-46.367,-20.621,-44.013,-20.13C-38.608,-19.001,-32.902,-15.353,-29.24,-11.201C-22.401,-3.45,-18.013,6.164,-13.367,16.342C-13.13,16.861,-12.893,17.382,-12.655,17.9C-17.889,16.507,-23.16,14.849,-28.406,12.944ZM52.495,0.88C47.591,6.315,39.598,9.1,31.869,11.794C30.678,12.209,29.496,12.621,28.334,13.038C23.082,14.926,17.805,16.566,12.566,17.941C12.806,17.424,13.045,16.905,13.283,16.387C17.963,6.224,22.384,-3.375,29.248,-11.103C32.925,-15.244,38.642,-18.872,44.052,-19.983C46.407,-20.467,48.704,-20.473,50.749,-19.835C53.815,-18.878,55.699,-16.975,56.509,-14.018C57.78,-9.369,56.093,-3.104,52.495,0.88Z" /></g><g id="i7" transform="matrix(1,0,0,1,119.037,86.866)"><path fill="#000000" d="M106.403,27.608C106.403,27.608,-106.495,27.253,-106.495,27.253C-113.29,27.242,-118.787,21.725,-118.776,14.93C-118.776,14.93,-118.726,-15.325,-118.726,-15.325C-118.715,-22.12,-113.198,-27.619,-106.404,-27.607C-106.404,-27.607,106.495,-27.252,106.495,-27.252C113.289,-27.241,118.788,-21.724,118.776,-14.93C118.776,-14.93,118.726,15.326,118.726,15.326C118.715,22.121,113.198,27.619,106.403,27.608Z" /></g><g id="i3" transform="matrix(1,0,0,1,119.037,86.866)"><path fill="#ff891f" d="M20.032,27.463C20.032,27.463,-20.123,27.396,-20.123,27.396C-20.123,27.396,-20.031,-27.463,-20.031,-27.463C-20.031,-27.463,20.123,-27.396,20.123,-27.396C20.123,-27.396,20.032,27.463,20.032,27.463Z" /></g><g id="i2" transform="matrix(1,0,0,1,119.099,48.531)"><path fill="#ff891f" d="M14.842,-10.885C14.842,-10.885,-14.802,-10.934,-14.802,-10.934C-17.704,-10.939,-20.061,-8.59,-20.066,-5.688C-20.066,-5.688,-20.094,10.871,-20.094,10.871C-20.094,10.871,20.061,10.939,20.061,10.939C20.061,10.939,20.089,-5.621,20.089,-5.621C20.094,-8.523,17.744,-10.88,14.842,-10.885Z" /></g></g></g></g></g></g></g></g></g><g id="i8"><g transform="translate(603.627,496.761) scale(1.24,1.24) translate(-205.196,-70.738)"><g opacity="0" visibility="visible" id="i9"><animate repeatCount="indefinite" begin="0s" calcMode="discrete" dur="3s" values="visible; hidden; hidden" keyTimes="0; 0.733; 1" attributeName="visibility" /><animate repeatCount="indefinite" attributeName="opacity" dur="3s" begin="0s" fill="freeze" values="0; 0; 1" keyTimes="0; 1; 1" keySplines="0 0 1 1; 0 0 1 1" calcMode="spline" /><g transform="translate(244.796,2.622)"><animateTransform repeatCount="indefinite" type="translate" attributeName="transform" dur="3s" begin="0s" calcMode="spline" values="244.796 2.622; 244.796 2.622; 390.796 -59.378; 290.796 68.622; 300.796 134.622; 200.796 198.622" keyTimes="0; 1; 1; 1; 1; 1" keySplines="0 0 1 1; 0 0 1 1; 0 0 1 1; 0 0 1 1; 0 0 1 1" fill="freeze" /><g transform="rotate(0)"><animateTransform repeatCount="indefinite" type="rotate" attributeName="transform" dur="3s" begin="0s" calcMode="spline" values="0; 0; 121; 218; 386" keyTimes="0; 1; 1; 1; 1" keySplines="0 0 1 1; 0 0 1 1; 0 0 1 1; 0 0 1 1" fill="freeze" /><g transform="scale(1.24,1.24) translate(-8.183,-6.997)"><g id="i2" transform="matrix(1,0,0,1,8.182,6.997)"><path fill="#00aa6e" d="M7.933,2.918C7.933,2.918,1.002,-1.459,0.273,-6.747C0.273,-6.747,-6.474,-6.382,-7.933,-4.193C-7.933,-4.193,-4.833,4.559,-1.186,6.2C-1.186,6.2,7.021,6.747,7.933,2.918Z" /></g></g></g></g></g></g></g><g id="i8"><g transform="translate(603.627,496.761) scale(1.24,1.24) translate(-205.196,-70.738)"><g opacity="0" visibility="visible" id="i10"><animate repeatCount="indefinite" begin="0s" calcMode="discrete" dur="3s" values="visible; hidden; hidden" keyTimes="0; 0.733; 1" attributeName="visibility" /><animate repeatCount="indefinite" attributeName="opacity" dur="3s" begin="0s" fill="freeze" values="0; 0; 1" keyTimes="0; 1; 1" keySplines="0 0 1 1; 0 0 1 1" calcMode="spline" /><g transform="translate(244.796,2.622)"><animateTransform repeatCount="indefinite" type="translate" attributeName="transform" dur="3s" begin="0s" calcMode="spline" values="244.796 2.622; 244.796 2.622; 512.796 -305.378; 548.796 -149.378; 432.796 -53.378; 604.796 28.622; 494.796 197.622" keyTimes="0; 1; 1; 1; 1; 1; 1" keySplines="0 0 1 1; 0 0 1 1; 0 0 1 1; 0 0 1 1; 0 0 1 1; 0 0 1 1" fill="freeze" /><g transform="rotate(0)"><animateTransform repeatCount="indefinite" type="rotate" attributeName="transform" dur="3s" begin="0s" calcMode="spline" values="0; 0; -112; -167; -249; -434" keyTimes="0; 1; 1; 1; 1; 1" keySplines="0 0 1 1; 0 0 1 1; 0 0 1 1; 0 0 1 1; 0 0 1 1" fill="freeze" /><g transform="scale(1.24,1.24) translate(-8.183,-6.997)"><g id="i2" transform="matrix(1,0,0,1,8.182,6.997)"><path fill="#00aa6e" d="M7.933,2.918C7.933,2.918,1.002,-1.459,0.273,-6.747C0.273,-6.747,-6.474,-6.382,-7.933,-4.193C-7.933,-4.193,-4.833,4.559,-1.186,6.2C-1.186,6.2,7.021,6.747,7.933,2.918Z" /></g></g></g></g></g></g></g><g id="i8"><g transform="translate(603.627,496.761) scale(1.24,1.24) translate(-205.196,-70.738)"><g opacity="0" visibility="visible" id="i11"><animate repeatCount="indefinite" begin="0s" calcMode="discrete" dur="3s" values="visible; hidden; hidden" keyTimes="0; 0.733; 1" attributeName="visibility" /><animate repeatCount="indefinite" attributeName="opacity" dur="3s" begin="0s" fill="freeze" values="0; 0; 1" keyTimes="0; 1; 1" keySplines="0 0 1 1; 0 0 1 1" calcMode="spline" /><g transform="translate(244.796,2.622)"><animateTransform repeatCount="indefinite" type="translate" attributeName="transform" dur="3s" begin="0s" calcMode="spline" values="244.796 2.622; 244.796 2.622; 36.796 -241.378; -51.204 -123.378; 106.796 8.622; -47.204 96.622; 106.796 198.622" keyTimes="0; 1; 1; 1; 1; 1; 1" keySplines="0 0 1 1; 0 0 1 1; 0 0 1 1; 0 0 1 1; 0 0 1 1; 0 0 1 1" fill="freeze" /><g transform="rotate(0)"><animateTransform repeatCount="indefinite" type="rotate" attributeName="transform" dur="3s" begin="0s" calcMode="spline" values="0; 0; -103; -175; -251; -405" keyTimes="0; 1; 1; 1; 1; 1" keySplines="0 0 1 1; 0 0 1 1; 0 0 1 1; 0 0 1 1; 0 0 1 1" fill="freeze" /><g transform="scale(1.24,1.24) translate(-8.183,-6.997)"><g id="i2" transform="matrix(1,0,0,1,8.182,6.997)"><path fill="#00aa6e" d="M7.933,2.918C7.933,2.918,1.002,-1.459,0.273,-6.747C0.273,-6.747,-6.474,-6.382,-7.933,-4.193C-7.933,-4.193,-4.833,4.559,-1.186,6.2C-1.186,6.2,7.021,6.747,7.933,2.918Z" /></g></g></g></g></g></g></g><g id="i8"><g transform="translate(603.627,496.761) scale(1.24,1.24) translate(-205.196,-70.738)"><g opacity="0" visibility="visible" id="i12"><animate repeatCount="indefinite" begin="0s" calcMode="discrete" dur="3s" values="visible; hidden; hidden" keyTimes="0; 0.733; 1" attributeName="visibility" /><animate repeatCount="indefinite" attributeName="opacity" dur="3s" begin="0s" fill="freeze" values="0; 0; 1" keyTimes="0; 1; 1" keySplines="0 0 1 1; 0 0 1 1" calcMode="spline" /><g transform="translate(244.796,2.622)"><animateTransform repeatCount="indefinite" type="translate" attributeName="transform" dur="3s" begin="0s" calcMode="spline" values="244.796 2.622; 244.796 2.622; 594.796 -187.378; 542.796 -23.378; 430.796 60.622; 346.796 196.622" keyTimes="0; 1; 1; 1; 1; 1" keySplines="0 0 1 1; 0 0 1 1; 0 0 1 1; 0 0 1 1; 0 0 1 1" fill="freeze" /><g transform="rotate(0)"><animateTransform repeatCount="indefinite" type="rotate" attributeName="transform" dur="3s" begin="0s" calcMode="spline" values="0; 0; 103; 207; 297" keyTimes="0; 1; 1; 1; 1" keySplines="0 0 1 1; 0 0 1 1; 0 0 1 1; 0 0 1 1" fill="freeze" /><g transform="scale(1.24,1.24) translate(-8.183,-6.997)"><g id="i2" transform="matrix(1,0,0,1,8.182,6.997)"><path fill="#00aa6e" d="M7.933,2.918C7.933,2.918,1.002,-1.459,0.273,-6.747C0.273,-6.747,-6.474,-6.382,-7.933,-4.193C-7.933,-4.193,-4.833,4.559,-1.186,6.2C-1.186,6.2,7.021,6.747,7.933,2.918Z" /></g></g></g></g></g></g></g><g id="i8"><g transform="translate(603.627,496.761) scale(1.24,1.24) translate(-205.196,-70.738)"><g opacity="0" visibility="visible" id="i13"><animate repeatCount="indefinite" begin="0s" calcMode="discrete" dur="3s" values="visible; hidden; hidden" keyTimes="0; 0.733; 1" attributeName="visibility" /><animate repeatCount="indefinite" attributeName="opacity" dur="3s" begin="0s" fill="freeze" values="0; 0; 1" keyTimes="0; 1; 1" keySplines="0 0 1 1; 0 0 1 1" calcMode="spline" /><g transform="translate(198.891,-2.898)"><animateTransform repeatCount="indefinite" type="translate" attributeName="transform" dur="3s" begin="0s" calcMode="spline" values="198.891 -2.898; 198.891 -2.898; 26.891 -68.898; 106.891 55.102; 44.891 195.102" keyTimes="0; 1; 1; 1; 1" keySplines="0 0 1 1; 0 0 1 1; 0 0 1 1; 0 0 1 1" fill="freeze" /><g transform="rotate(0)"><animateTransform repeatCount="indefinite" type="rotate" attributeName="transform" dur="3s" begin="0s" calcMode="spline" values="0; 0; 155; 560" keyTimes="0; 1; 1; 1" keySplines="0 0 1 1; 0 0 1 1; 0 0 1 1" fill="freeze" /><g transform="scale(1.24,1.24) translate(-20.424,-10.264)"><g id="i3" transform="matrix(1,0,0,1,25.119,8.354)"><path fill="#ffc837" d="M-11.402,3.928C-11.402,3.928,2.297,6.434,5.217,-7.9C5.217,-7.9,15.48,-8.104,15.48,-8.104C15.48,-8.104,14.279,0.515,-3.71,5.102C-15.48,8.104,-11.402,3.928,-11.402,3.928Z" /></g><g id="i2" transform="matrix(1,0,0,1,15.003,13.092)"><path fill="#ffeab0" d="M-14.753,-3.23C-14.753,-3.23,-6.606,7.185,14.753,-2.511C14.753,-2.511,6.405,0.363,-4.564,-7.185C-4.564,-7.185,-14.753,-3.23,-14.753,-3.23Z" /></g></g></g></g></g></g></g><g id="i8"><g transform="translate(603.627,496.761) scale(1.24,1.24) translate(-205.196,-70.738)"><g opacity="0" visibility="visible" id="i14"><animate repeatCount="indefinite" begin="0s" calcMode="discrete" dur="3s" values="visible; hidden; hidden" keyTimes="0; 0.733; 1" attributeName="visibility" /><animate repeatCount="indefinite" attributeName="opacity" dur="3s" begin="0s" fill="freeze" values="0; 0; 1" keyTimes="0; 1; 1" keySplines="0 0 1 1; 0 0 1 1" calcMode="spline" /><g transform="translate(228.06,-6.701)"><animateTransform repeatCount="indefinite" type="translate" attributeName="transform" dur="3s" begin="0s" calcMode="spline" values="228.06 -6.701; 228.06 -6.701; 486.06 -80.701; 412.06 37.299; 496.06 123.299; 414.06 198.299" keyTimes="0; 1; 1; 1; 1; 1" keySplines="0 0 1 1; 0 0 1 1; 0 0 1 1; 0 0 1 1; 0 0 1 1" fill="freeze" /><g transform="rotate(0)"><animateTransform repeatCount="indefinite" type="rotate" attributeName="transform" dur="3s" begin="0s" calcMode="spline" values="0; 0; 132; 279; 497" keyTimes="0; 1; 1; 1; 1" keySplines="0 0 1 1; 0 0 1 1; 0 0 1 1; 0 0 1 1" fill="freeze" /><g transform="scale(1.24,1.24) translate(-16.459,-13.909)"><g id="i3" transform="matrix(1,0,0,1,14.748,8.707)"><path fill="#ffc837" d="M9.227,7.906C9.227,7.906,3.289,-3.262,-8.566,2.74C-8.566,2.74,-14.499,-4.451,-14.499,-4.451C-14.499,-4.451,-7.684,-8.457,5.725,1.766C14.498,8.456,9.227,7.906,9.227,7.906Z" /></g><g id="i2" transform="matrix(1,0,0,1,23.195,16.859)"><path fill="#ffeab0" d="M6.651,10.708C6.651,10.708,9.473,-0.966,-9.474,-10.708C-9.474,-10.708,-2.72,-6.385,-1.911,5.683C-1.911,5.683,6.651,10.708,6.651,10.708Z" /></g></g></g></g></g></g></g><g id="i8"><g transform="translate(603.627,496.761) scale(1.24,1.24) translate(-205.196,-70.738)"><g opacity="0" visibility="visible" id="i15"><animate repeatCount="indefinite" begin="0s" calcMode="discrete" dur="3s" values="visible; hidden; hidden" keyTimes="0; 0.733; 1" attributeName="visibility" /><animate repeatCount="indefinite" attributeName="opacity" dur="3s" begin="0s" fill="freeze" values="0; 0; 1" keyTimes="0; 1; 1" keySplines="0 0 1 1; 0 0 1 1" calcMode="spline" /><g transform="translate(228.06,-6.701)"><animateTransform repeatCount="indefinite" type="translate" attributeName="transform" dur="3s" begin="0s" calcMode="spline" values="228.06 -6.701; 228.06 -6.701; 158.06 -350.701; 54.06 -190.701; 142.06 -30.701; 56.06 95.299; 232.06 197.299" keyTimes="0; 1; 1; 1; 1; 1; 1" keySplines="0 0 1 1; 0 0 1 1; 0 0 1 1; 0 0 1 1; 0 0 1 1; 0 0 1 1" fill="freeze" /><g transform="rotate(0)"><animateTransform repeatCount="indefinite" type="rotate" attributeName="transform" dur="3s" begin="0s" calcMode="spline" values="0; 0; -51; -183; -266; -555" keyTimes="0; 1; 1; 1; 1; 1" keySplines="0 0 1 1; 0 0 1 1; 0 0 1 1; 0 0 1 1; 0 0 1 1" fill="freeze" /><g transform="scale(1.24,1.24) translate(-16.459,-13.909)"><g id="i3" transform="matrix(1,0,0,1,14.748,8.707)"><path fill="#ffc837" d="M9.227,7.906C9.227,7.906,3.289,-3.262,-8.566,2.74C-8.566,2.74,-14.499,-4.451,-14.499,-4.451C-14.499,-4.451,-7.684,-8.457,5.725,1.766C14.498,8.456,9.227,7.906,9.227,7.906Z" /></g><g id="i2" transform="matrix(1,0,0,1,23.195,16.859)"><path fill="#ffeab0" d="M6.651,10.708C6.651,10.708,9.473,-0.966,-9.474,-10.708C-9.474,-10.708,-2.72,-6.385,-1.911,5.683C-1.911,5.683,6.651,10.708,6.651,10.708Z" /></g></g></g></g></g></g></g><g id="i8"><g transform="translate(603.627,496.761) scale(1.24,1.24) translate(-205.196,-70.738)"><g opacity="0" visibility="visible" id="i16"><animate repeatCount="indefinite" begin="0s" calcMode="discrete" dur="3s" values="visible; hidden; hidden" keyTimes="0; 0.733; 1" attributeName="visibility" /><animate repeatCount="indefinite" attributeName="opacity" dur="3s" begin="0s" fill="freeze" values="0; 0; 1" keyTimes="0; 1; 1" keySplines="0 0 1 1; 0 0 1 1" calcMode="spline" /><g transform="translate(229.702,-1.812)"><animateTransform repeatCount="indefinite" type="translate" attributeName="transform" dur="3s" begin="0s" calcMode="spline" values="229.702 -1.812; 229.702 -1.812; 337.702 -137.812; 371.702 -47.812; 277.702 42.188; 309.702 196.188" keyTimes="0; 1; 1; 1; 1; 1" keySplines="0 0 1 1; 0 0 1 1; 0 0 1 1; 0 0 1 1; 0 0 1 1" fill="freeze" /><g transform="rotate(0)"><animateTransform repeatCount="indefinite" type="rotate" attributeName="transform" dur="3s" begin="0s" calcMode="spline" values="0; 0; 117; 239; 517" keyTimes="0; 1; 1; 1; 1" keySplines="0 0 1 1; 0 0 1 1; 0 0 1 1; 0 0 1 1" fill="freeze" /><g transform="scale(1.24,1.24) translate(-19.474,-13.054)"><g id="i3" transform="matrix(1,0,0,1,9.786,9.958)"><path fill="#6aa0f9" d="M9.536,8.359C9.536,8.359,3.011,6.253,-0.35,0.886C-2.844,-3.097,-2.248,-9.392,-2.131,-9.708C-2.131,-9.708,-9.536,-8.679,-9.536,-8.679C-9.536,-8.679,-8.393,1.223,-2.795,6.126C-1.08,7.629,2.902,9.132,5.224,9.406C7.783,9.708,9.536,8.359,9.536,8.359Z" /></g><g id="i2" transform="matrix(1,0,0,1,23.335,17.889)"><path fill="#b5cffc" d="M6.556,-7.969C6.556,-7.969,15.362,-2.95,15.362,-2.95C15.362,-2.95,-0.802,7.969,-15.362,-1.09C-15.362,-1.09,1.393,-1.232,6.556,-7.969Z" /></g></g></g></g></g></g></g><g id="i8"><g transform="translate(603.627,496.761) scale(1.24,1.24) translate(-205.196,-70.738)"><g opacity="0" visibility="visible" id="i17"><animate repeatCount="indefinite" begin="0s" calcMode="discrete" dur="3s" values="visible; hidden; hidden" keyTimes="0; 0.733; 1" attributeName="visibility" /><animate repeatCount="indefinite" attributeName="opacity" dur="3s" begin="0s" fill="freeze" values="0; 0; 1" keyTimes="0; 1; 1" keySplines="0 0 1 1; 0 0 1 1" calcMode="spline" /><g transform="translate(229.702,-1.812)"><animateMotion repeatCount="indefinite" dur="3s" begin="0s" calcMode="spline" keyTimes="0; 1; 1; 1; 1; 1" keySplines="0 0 1 1; 0 0 1 1; 0 0 1 1; 0 0 1 1; 0 0 1 1" keyPoints="0; 0; 0.408; 0.585; 0.782; 1" path="M0 0 C-58 -44.667 -283.667 -249.333 -348 -268 C-412.333 -286.667 -409 -156.333 -386 -112 C-363 -67.667 -219 -53.167 -210 -2 C-201 49.167 -311.667 162.167 -332 195" fill="freeze" /><g transform="rotate(0)"><animateTransform repeatCount="indefinite" type="rotate" attributeName="transform" dur="3s" begin="0s" calcMode="spline" values="0; 0; 94; 201; 344" keyTimes="0; 1; 1; 1; 1" keySplines="0 0 1 1; 0 0 1 1; 0 0 1 1; 0 0 1 1" fill="freeze" /><g transform="scale(1.24,1.24) translate(-19.474,-13.054)"><g id="i3" transform="matrix(1,0,0,1,9.786,9.958)"><path fill="#6aa0f9" d="M9.536,8.359C9.536,8.359,3.011,6.253,-0.35,0.886C-2.844,-3.097,-2.248,-9.392,-2.131,-9.708C-2.131,-9.708,-9.536,-8.679,-9.536,-8.679C-9.536,-8.679,-8.393,1.223,-2.795,6.126C-1.08,7.629,2.902,9.132,5.224,9.406C7.783,9.708,9.536,8.359,9.536,8.359Z" /></g><g id="i2" transform="matrix(1,0,0,1,23.335,17.889)"><path fill="#b5cffc" d="M6.556,-7.969C6.556,-7.969,15.362,-2.95,15.362,-2.95C15.362,-2.95,-0.802,7.969,-15.362,-1.09C-15.362,-1.09,1.393,-1.232,6.556,-7.969Z" /></g></g></g></g></g></g></g><g id="i8"><g transform="translate(603.627,496.761) scale(1.24,1.24) translate(-205.196,-70.738)"><g opacity="0" visibility="visible" id="i18"><animate repeatCount="indefinite" begin="0s" calcMode="discrete" dur="3s" values="visible; hidden; hidden" keyTimes="0; 0.733; 1" attributeName="visibility" /><animate repeatCount="indefinite" attributeName="opacity" dur="3s" begin="0s" fill="freeze" values="0; 0; 1; 0; 1; 0; 1" keyTimes="0; 1; 1; 1; 1; 1; 1" keySplines="0 0 1 1; 0 0 1 1; 0 0 1 1; 0 0 1 1; 0 0 1 1; 0 0 1 1" calcMode="spline" /><g transform="translate(372.728,-234.232)"><animateTransform repeatCount="indefinite" type="translate" attributeName="transform" dur="3s" begin="0s" calcMode="spline" values="372.728 -234.232; 372.728 -234.232; 372.728 191.768" keyTimes="0; 1; 1" keySplines="0 0 1 1; 0 0 1 1" fill="freeze" /><g transform="scale(1.24,1.24) translate(-7.223,-7.223)"><g id="i2" transform="matrix(1,0,0,1,7.223,7.224)"><path fill="#6aa0f9" d="M-0.798,6.254C-1.832,3.799,-3.799,1.833,-6.253,0.798C-6.973,0.495,-6.973,-0.494,-6.253,-0.797C-3.799,-1.832,-1.832,-3.799,-0.798,-6.254C-0.494,-6.974,0.495,-6.974,0.799,-6.254C1.834,-3.799,3.8,-1.832,6.255,-0.797C6.974,-0.494,6.974,0.495,6.255,0.798C3.8,1.833,1.834,3.799,0.799,6.254C0.495,6.973,-0.494,6.973,-0.798,6.254Z" /></g></g></g></g></g></g><g id="i8"><g transform="translate(603.627,496.761) scale(1.24,1.24) translate(-205.196,-70.738)"><g opacity="0" visibility="visible" id="i19"><animate repeatCount="indefinite" begin="0s" calcMode="discrete" dur="3s" values="visible; hidden; hidden" keyTimes="0; 0.733; 1" attributeName="visibility" /><animate repeatCount="indefinite" attributeName="opacity" dur="3s" begin="0s" fill="freeze" values="0; 0; 1; 0; 1; 0; 1" keyTimes="0; 1; 1; 1; 1; 1; 1" keySplines="0 0 1 1; 0 0 1 1; 0 0 1 1; 0 0 1 1; 0 0 1 1; 0 0 1 1" calcMode="spline" /><g transform="translate(-25.06,-123.438)"><animateTransform repeatCount="indefinite" type="translate" attributeName="transform" dur="3s" begin="0s" calcMode="spline" values="-25.06 -123.438; -25.06 -123.438; -25.06 192.562" keyTimes="0; 1; 1" keySplines="0 0 1 1; 0 0 1 1" fill="freeze" /><g transform="scale(1.24,1.24) translate(-7.223,-7.224)"><g id="i2" transform="matrix(1,0,0,1,7.223,7.224)"><path fill="#6aa0f9" d="M-0.798,6.254C-1.833,3.799,-3.799,1.833,-6.254,0.798C-6.973,0.495,-6.973,-0.494,-6.254,-0.797C-3.799,-1.832,-1.833,-3.799,-0.798,-6.254C-0.495,-6.974,0.495,-6.974,0.798,-6.254C1.833,-3.799,3.799,-1.832,6.254,-0.797C6.973,-0.494,6.973,0.495,6.254,0.798C3.799,1.833,1.833,3.799,0.798,6.254C0.495,6.973,-0.495,6.973,-0.798,6.254Z" /></g></g></g></g></g></g><g id="i8"><g transform="translate(603.627,496.761) scale(1.24,1.24) translate(-205.196,-70.738)"><g visibility="visible" id="i20"><animate repeatCount="indefinite" begin="0s" calcMode="discrete" dur="3s" values="visible; hidden; hidden" keyTimes="0; 0.733; 1" attributeName="visibility" /><animate repeatCount="indefinite" attributeName="opacity" dur="3s" begin="0s" fill="freeze" values="1; 0; 1; 0; 1; 0; 1; 0; 1; 0" keyTimes="0; 0.133333; 0.266666; 0.4; 0.533333; 0.666667; 0.8; 0.933334; 1; 1" keySplines="0 0 1 1; 0 0 1 1; 0 0 1 1; 0 0 1 1; 0 0 1 1; 0 0 1 1; 0 0 1 1; 0 0 1 1; 0 0 1 1" calcMode="spline" /><g transform="translate(427.519,-75.585) scale(1.24,1.24) translate(-10.31,-10.31)"><g id="i2" transform="matrix(1,0,0,1,10.31,10.31)"><path fill="#97bcfb" d="M-1.151,9.022C-2.644,5.481,-5.481,2.644,-9.023,1.152C-10.06,0.714,-10.06,-0.713,-9.023,-1.151C-5.481,-2.644,-2.644,-5.48,-1.151,-9.022C-0.714,-10.06,0.713,-10.06,1.151,-9.022C2.643,-5.48,5.48,-2.644,9.021,-1.151C10.059,-0.713,10.059,0.714,9.021,1.152C5.48,2.644,2.643,5.481,1.151,9.022C0.713,10.06,-0.714,10.06,-1.151,9.022Z" /></g></g></g></g></g><g id="i8"><g transform="translate(603.627,496.761) scale(1.24,1.24) translate(-205.196,-70.738)"><g opacity="0.6" visibility="visible" id="i21"><animate repeatCount="indefinite" begin="0s" calcMode="discrete" dur="3s" values="visible; hidden; hidden" keyTimes="0; 0.733; 1" attributeName="visibility" /><animate repeatCount="indefinite" attributeName="opacity" dur="3s" begin="0s" fill="freeze" values="1; 0; 1; 0" keyTimes="0; 0.333333; 0.666667; 1" keySplines="0 0 1 1; 0 0 1 1; 0 0 1 1" calcMode="spline" /><g transform="translate(7.223,-54.324) scale(1.24,1.24) translate(-15.974,-15.973)"><g id="i2" transform="matrix(1,0,0,1,15.973,15.974)"><path fill="#00aa6e" d="M-1.799,14.101C-4.132,8.566,-8.566,4.133,-14.101,1.8C-15.724,1.117,-15.724,-1.116,-14.101,-1.799C-8.566,-4.132,-4.132,-8.565,-1.799,-14.101C-1.115,-15.723,1.116,-15.723,1.8,-14.101C4.133,-8.565,8.566,-4.132,14.101,-1.799C15.723,-1.116,15.723,1.117,14.101,1.8C8.566,4.133,4.133,8.566,1.8,14.101C1.116,15.723,-1.115,15.723,-1.799,14.101Z" /></g></g></g></g></g><g id="i8"><g transform="translate(603.627,496.761) scale(1.24,1.24) translate(-205.196,-70.738)"><g opacity="0" visibility="visible" id="i22"><animate repeatCount="indefinite" begin="0s" calcMode="discrete" dur="3s" values="visible; hidden; hidden" keyTimes="0; 0.733; 1" attributeName="visibility" /><animate repeatCount="indefinite" attributeName="opacity" dur="3s" begin="0s" fill="freeze" values="1; 0; 1; 0; 1; 0" keyTimes="0; 0.266667; 0.533333; 0.8; 1; 1" keySplines="0 0 1 1; 0 0 1 1; 0 0 1 1; 0 0 1 1; 0 0 1 1" calcMode="spline" /><g transform="translate(437.319,112.103) scale(1.24,1.24) translate(-16.012,-16.013)"><g id="i2" transform="matrix(1,0,0,1,16.012,16.013)"><path fill="#ff7850" d="M-1.804,14.136C-4.143,8.586,-8.587,4.143,-14.136,1.805C-15.762,1.119,-15.762,-1.118,-14.136,-1.803C-8.587,-4.142,-4.143,-8.587,-1.804,-14.135C-1.118,-15.762,1.119,-15.762,1.804,-14.135C4.143,-8.587,8.588,-4.142,14.136,-1.803C15.762,-1.118,15.762,1.119,14.136,1.805C8.588,4.143,4.143,8.586,1.804,14.136C1.119,15.762,-1.118,15.762,-1.804,14.136Z" /></g></g></g></g></g><g id="i8"><g transform="translate(603.627,496.761) scale(1.24,1.24) translate(-205.196,-70.738)"><g opacity="0" visibility="visible" id="i23"><animate repeatCount="indefinite" begin="0s" calcMode="discrete" dur="3s" values="visible; hidden; hidden" keyTimes="0; 0.733; 1" attributeName="visibility" /><animate repeatCount="indefinite" attributeName="opacity" dur="3s" begin="0s" fill="freeze" values="0; 1; 0; 1; 0; 1; 0; 1; 0; 1; 0" keyTimes="0; 0.133333; 0.266667; 0.4; 0.533333; 0.666667; 0.8; 0.933333; 1; 1; 1" keySplines="0 0 1 1; 0 0 1 1; 0 0 1 1; 0 0 1 1; 0 0 1 1; 0 0 1 1; 0 0 1 1; 0 0 1 1; 0 0 1 1; 0 0 1 1" calcMode="spline" /><g transform="translate(35.204,49.828) scale(1.24,1.24) translate(-9.91,-9.91)"><g id="i2" transform="matrix(1,0,0,1,9.91,9.91)"><path fill="#ffaf99" d="M-1.105,8.664C-2.538,5.263,-5.262,2.539,-8.663,1.105C-9.66,0.685,-9.66,-0.686,-8.663,-1.106C-5.262,-2.539,-2.538,-5.263,-1.105,-8.663C-0.685,-9.66,0.687,-9.66,1.106,-8.663C2.54,-5.263,5.264,-2.539,8.665,-1.106C9.661,-0.686,9.661,0.685,8.665,1.105C5.264,2.539,2.54,5.263,1.106,8.664C0.687,9.66,-0.685,9.66,-1.105,8.664Z" /></g></g></g></g></g><g visibility="hidden" id="i8"><animate repeatCount="indefinite" begin="0s" calcMode="discrete" dur="3s" values="hidden; visible; hidden; hidden" keyTimes="0; 0.733; 0.733; 1" attributeName="visibility" /><animate repeatCount="indefinite" attributeName="opacity" dur="3s" begin="0s" fill="freeze" values="1; 0; 1; 0; 1; 0; 1; 0; 1; 0; 1; 0; 1; 0; 1; 0; 1; 0; 1; 0; 1; 0" keyTimes="0; 0.066667; 0.133333; 0.2; 0.266666; 0.333333; 0.4; 0.466666; 0.533333; 0.599999; 0.666666; 0.733334; 0.800001; 0.866667; 0.933334; 1; 1; 1; 1; 1; 1; 1" keySplines="0 0 1 1; 0 0 1 1; 0 0 1 1; 0 0 1 1; 0 0 1 1; 0 0 1 1; 0 0 1 1; 0 0 1 1; 0 0 1 1; 0 0 1 1; 0 0 1 1; 0 0 1 1; 0 0 1 1; 0 0 1 1; 0 0 1 1; 0 0 1 1; 0 0 1 1; 0 0 1 1; 0 0 1 1; 0 0 1 1; 0 0 1 1" calcMode="spline" /><g transform="translate(603.627,496.761) scale(1.24,1.24) translate(-205.196,-70.738)"><g id="i3" transform="matrix(1,0,0,1,7.223,134.253)"><path fill="#ffc700" d="M-0.798,6.254C-1.833,3.799,-3.799,1.832,-6.255,0.798C-6.974,0.494,-6.974,-0.495,-6.255,-0.799C-3.799,-1.833,-1.833,-3.8,-0.798,-6.255C-0.495,-6.974,0.495,-6.974,0.799,-6.255C1.833,-3.8,3.798,-1.833,6.253,-0.799C6.973,-0.495,6.973,0.494,6.253,0.798C3.798,1.832,1.833,3.799,0.799,6.254C0.495,6.973,-0.495,6.973,-0.798,6.254Z" /></g><g id="i2" transform="matrix(1,0,0,1,403.169,7.223)"><path fill="#4a4a4a" d="M-0.797,6.254C-1.832,3.799,-3.799,1.832,-6.254,0.798C-6.974,0.494,-6.974,-0.494,-6.254,-0.798C-3.799,-1.832,-1.832,-3.799,-0.797,-6.254C-0.494,-6.973,0.495,-6.973,0.798,-6.254C1.833,-3.799,3.799,-1.832,6.254,-0.798C6.973,-0.494,6.973,0.494,6.254,0.798C3.799,1.832,1.833,3.799,0.798,6.254C0.495,6.973,-0.494,6.973,-0.797,6.254Z" /></g></g></g></svg>